<svg width="840" height="673" viewBox="0 0 840 673" fill="none" xmlns="http://www.w3.org/2000/svg">
<path fill-rule="evenodd" clip-rule="evenodd" d="M727.089 623C747.562 579.273 759 530.472 759 479C759 291.223 606.777 139 419 139C231.223 139 79 291.223 79 479C79 530.472 90.4379 579.273 110.911 623H727.089Z" fill="url(#paint0_linear_3183_254450)" fill-opacity="0.5"/>
<g clip-path="url(#clip0_3183_254450)">
<path d="M505.238 287C465.088 287 407.924 297.299 346.879 317C237.178 352.522 156.133 405.507 165.835 435.358C170.163 448.493 191.506 454.91 223.446 454.91C230.014 454.91 237.178 454.761 244.64 454.164L246.282 451.776C254.193 441.328 260.76 437 266.73 436.701H267.476C271.015 436.781 274.448 437.925 277.327 439.985C280.163 441.776 284.342 444.91 288.82 448.493H289.715C289.222 443.382 289.172 438.238 289.566 433.119C289.74 432.002 290.146 430.935 290.76 429.985C290.312 426.104 296.581 427.149 293.148 423.269C289.715 419.388 294.64 414.164 297.775 410.582C300.909 407 298.372 403.269 298.969 394.612C299.566 385.955 306.282 372.821 318.67 368.045C320.71 367.229 322.891 366.823 325.088 366.851C334.79 366.851 342.551 374.463 342.551 374.463C342.551 374.463 351.357 376.552 352.252 384.463C353.148 392.373 347.327 403.119 345.685 408.194C344.043 413.269 347.178 412.821 346.73 416.403C346.282 419.985 343.745 419.836 346.133 424.463C346.501 425.205 346.693 426.022 346.693 426.851C346.693 427.679 346.501 428.497 346.133 429.239C346.987 429.841 347.659 430.667 348.073 431.627L349.267 434.91C359.417 432.075 369.715 429.09 380.163 425.657V318.493C380.237 316.544 380.915 314.666 382.103 313.119C383.447 311.167 385.468 309.784 387.775 309.239H563.446C563.369 308.48 563.219 307.73 562.999 307C558.67 293.866 537.327 287.299 505.238 287.299" fill="#F2F6FB"/>
<path d="M363.003 481.776L361.51 490.731C359.947 490.555 358.399 490.256 356.883 489.836C356.435 489.687 355.838 488.194 355.092 486.403L345.391 492.672V494.612C345.502 495.453 345.552 496.301 345.54 497.149H346.435C348.116 497.007 349.796 497.427 351.212 498.343C352.589 499.335 353.886 500.433 355.092 501.627L359.57 502.672L363.003 481.776M590.316 415.507H588.077V437C588.077 439.547 587.076 441.993 585.289 443.808C583.501 445.623 581.072 446.662 578.525 446.701H439.868C420.963 453.466 402.473 461.341 384.495 470.284H422.406C422.595 470.282 422.783 470.321 422.957 470.398C423.13 470.475 423.285 470.587 423.412 470.728C423.539 470.869 423.635 471.036 423.693 471.216C423.751 471.397 423.77 471.588 423.749 471.776L417.032 510.134L416.734 511.627C416.735 511.797 416.7 511.966 416.631 512.121C416.562 512.277 416.46 512.416 416.333 512.529C416.206 512.642 416.056 512.726 415.894 512.777C415.731 512.827 415.559 512.842 415.391 512.821H401.361L405.391 515.06L423.749 543.119L438.077 548.343L446.585 551.925C461.212 548.343 476.286 544.164 491.809 539.09C585.241 508.94 653.749 462.075 644.943 434.761C640.764 421.925 620.465 415.507 590.316 415.507Z" fill="#F2F6FB"/>
<path d="M231.655 469.09C227.924 470.134 224.043 471.179 220.163 472.522C173.446 487.597 138.969 510.284 143.148 523.119C144.939 528.791 154.193 531.478 167.924 531.478C178.351 531.335 188.743 530.236 198.969 528.194C202.032 516.25 206.861 504.831 213.297 494.313C218.609 485.346 224.755 476.901 231.655 469.09" fill="#F2F6FB"/>
<path d="M617.63 361.627C608.858 361.801 600.159 363.259 591.809 365.955L588.078 367.299V409.985C593.803 409.266 599.45 408.017 604.944 406.254C628.675 398.493 645.093 383.269 641.511 372.075C639.272 365.358 630.018 361.627 617.63 361.627Z" fill="#F2F6FB"/>
<path d="M604.936 520.134C591.951 520.134 574.787 523.119 556.578 529.09C520.907 540.582 495.086 558.94 498.668 569.985C500.459 575.358 508.817 578.194 521.205 578.194C533.593 578.194 551.354 575.209 569.563 569.239C605.086 557.746 631.056 539.388 627.474 528.343C625.683 522.821 617.324 520.134 604.936 520.134" fill="#F2F6FB"/>
<path d="M589.865 424.761C593.84 422.499 597.283 419.409 599.961 415.702C602.639 411.994 604.49 407.754 605.387 403.269C608.223 387.896 612.104 369.09 626.283 382.075C640.462 395.06 627.626 432.373 605.387 441.478L583.148 450.731C583.148 450.731 583.148 425.955 589.865 424.761Z" fill="#1D7E8E"/>
<path d="M575.539 448.493C575.539 448.493 597.479 434.612 609.42 421.627C621.36 408.642 618.524 391.776 618.524 391.776C619.787 396.942 619.893 402.323 618.835 407.535C617.777 412.747 615.581 417.66 612.405 421.925C601.509 437 575.539 448.493 575.539 448.493Z" fill="#1D5B45"/>
<path d="M584.343 420.881C586.741 419.542 588.822 417.703 590.445 415.488C592.067 413.273 593.193 410.734 593.746 408.045C595.537 398.791 597.925 387.597 606.582 395.358C615.239 403.119 607.328 425.507 593.746 430.881L580.164 436.403C580.164 436.403 580.164 421.627 584.343 420.881Z" fill="#01A09C"/>
<path d="M575.539 435.06C575.539 435.06 588.972 426.851 596.285 419.09C598.437 416.675 600.044 413.826 600.997 410.736C601.95 407.645 602.226 404.386 601.808 401.179C602.598 404.275 602.672 407.51 602.026 410.639C601.379 413.769 600.029 416.709 598.076 419.239C591.509 428.194 575.539 435.06 575.539 435.06Z" fill="#1D5B45"/>
<path d="M594.194 440.731C594.194 440.731 605.09 434.463 625.985 421.478C646.881 408.493 650.91 400.731 649.567 412.97C648.224 425.209 642.552 438.493 621.955 446.701C601.358 454.91 573.448 453.119 594.194 440.731Z" fill="#01A09C"/>
<path d="M593.75 449.239C593.75 449.239 601.362 447.746 618.377 435.806C635.392 423.866 638.377 420.881 638.377 420.881C638.377 420.881 620.765 435.955 612.407 441.925C606.792 445.688 600.426 448.184 593.75 449.239V449.239Z" fill="#2C8443"/>
<path d="M584.346 356.552C584.346 356.552 604.346 301.627 624.645 311.627C644.943 321.627 579.57 369.687 579.57 369.687L584.346 356.552Z" fill="#1D7E8E"/>
<path d="M580.164 368.045C580.164 368.045 613.895 323.269 612.403 325.06C610.91 326.851 589.418 362.97 580.164 368.045Z" fill="#1D5B45"/>
<path d="M578.077 372.522C578.077 372.522 608.077 334.015 620.167 344.313C632.256 354.612 594.794 374.612 583.6 376.851C572.406 379.09 578.077 372.522 578.077 372.522Z" fill="#01A09C"/>
<path d="M583.148 374.313C583.148 374.313 587.775 367.896 599.566 359.985C611.357 352.075 615.536 351.776 615.536 351.776C615.536 351.776 589.716 366.851 583.148 374.313Z" fill="#2C8443"/>
<path d="M176.584 608.493C176.584 608.493 164.644 612.522 158.823 602.97C153.002 593.418 159.121 591.328 149.27 588.045C139.42 584.761 137.181 582.373 135.241 575.657C133.3 568.94 123.151 570.433 119.27 562.522C115.39 554.612 121.211 557 113.3 546.105C105.39 535.209 100.464 528.94 104.345 526.254C108.226 523.567 115.838 523.567 121.061 531.776C126.285 539.985 131.061 544.463 137.479 544.164C143.897 543.866 144.494 558.791 152.255 558.493C160.017 558.194 166.435 561.925 169.121 569.239C171.808 576.552 181.658 574.612 186.584 582.522C189.808 587.703 192.365 593.269 194.196 599.09L176.584 608.493Z" fill="#01A09C"/>
<path d="M120.164 542.075L121.06 542.97C124.343 546.701 137.776 561.627 154.343 577C173.448 594.91 187.477 602.672 187.477 602.672L185.239 603.866C185.239 603.866 175.239 598.642 156.433 580.881C143.627 568.634 131.518 555.678 120.164 542.075V542.075Z" fill="#1D5B45"/>
<path d="M175.241 602.94C175.241 602.94 159.121 602.194 156.584 588.164C154.047 574.134 162.405 574.283 152.256 565.627C142.106 556.97 140.465 553.239 141.36 544.134C142.256 535.03 129.271 532.194 128.375 520.85C127.48 509.507 133.3 515.179 129.121 498.462C124.942 481.746 121.957 471.895 127.629 470.552C133.3 469.209 142.703 472.642 145.241 485.03C147.778 497.418 151.062 504.731 158.823 507.567C166.584 510.403 160.315 528.313 169.718 531.746C179.121 535.179 185.092 542.642 184.793 552.642C184.495 562.642 197.33 565.03 199.569 576.821C200.827 584.564 201.178 592.428 200.614 600.253L175.241 602.94Z" fill="#1D7E8E"/>
<path d="M139.266 496.821C139.415 497.337 139.615 497.837 139.863 498.314C142.101 504.433 151.057 528.612 163.594 554.881C177.922 585.329 190.907 601.299 190.907 601.299L187.624 601.597C187.624 601.597 178.37 590.553 164.191 560.403C154.709 539.688 146.388 518.462 139.266 496.821V496.821Z" fill="#1D5B45"/>
<path d="M203.152 599.955C203.152 599.955 189.868 597.269 192.107 588.164C194.346 579.06 194.197 571.746 189.271 566.672C184.346 561.597 180.913 554.284 183.6 545.328C186.286 536.373 185.54 534.582 181.51 525.478C177.48 516.373 172.704 502.493 183.749 499.508C194.794 496.522 197.48 520.851 202.555 526.97C207.629 533.09 219.271 535.478 220.913 546.672C222.555 557.866 218.674 562.045 228.973 567.716C239.271 573.388 236.286 592.045 233.301 596.821L203.152 599.955Z" fill="#01A09C"/>
<path d="M192.25 521.447C192.25 521.447 205.683 569.805 211.205 581.149C216.728 592.492 219.563 598.164 219.563 598.164L216.28 598.611C216.28 598.611 194.19 541.746 192.25 521.447Z" fill="#1D5B45"/>
<path d="M588.075 318.493V437C588.075 439.547 587.073 441.993 585.286 443.808C583.499 445.623 581.069 446.662 578.522 446.701H389.866C387.293 446.701 384.825 445.679 383.006 443.86C381.186 442.041 380.164 439.573 380.164 437V318.493C380.164 317.225 380.416 315.971 380.905 314.802C381.395 313.633 382.112 312.574 383.014 311.685C383.917 310.796 384.988 310.095 386.164 309.624C387.34 309.153 388.599 308.921 389.866 308.94H578.522C581.056 308.94 583.485 309.947 585.277 311.738C587.068 313.529 588.075 315.959 588.075 318.493" fill="#E1E6F4"/>
<path d="M588.075 318.493V328.194H380.164V318.493C380.201 316.487 380.85 314.54 382.024 312.913C383.197 311.286 384.84 310.056 386.731 309.388L389.866 308.94H578.522C581.056 308.94 583.485 309.947 585.277 311.738C587.068 313.529 588.075 315.959 588.075 318.493" fill="#6776E8"/>
<path d="M387.776 335.358V439.537C387.776 440.171 388.028 440.778 388.475 441.226C388.923 441.674 389.531 441.925 390.164 441.925H481.806C482.439 441.925 483.047 441.674 483.494 441.226C483.942 440.778 484.194 440.171 484.194 439.537V438.791C484.194 438.158 484.446 437.55 484.893 437.102C485.341 436.655 485.949 436.403 486.582 436.403H588.075V437C588.075 439.547 587.073 441.993 585.286 443.808C583.499 445.623 581.069 446.662 578.522 446.701H389.866C387.293 446.701 384.825 445.679 383.006 443.86C381.186 442.041 380.164 439.573 380.164 437V329.09C380.396 328.8 380.692 328.568 381.028 328.413C381.365 328.257 381.734 328.182 382.104 328.194H588.075V332.97H390.164C389.531 332.97 388.923 333.222 388.475 333.67C388.028 334.117 387.776 334.725 387.776 335.358" fill="#C3C9E0"/>
<path d="M588.075 309.388H380.164V328.149H588.075V309.388Z" fill="#5350CD"/>
<path d="M524.494 312.075H419.121C418.567 312.075 418.035 312.295 417.643 312.687C417.251 313.079 417.031 313.61 417.031 314.164C417.03 314.432 417.085 314.697 417.192 314.943C417.299 315.189 417.455 315.409 417.651 315.592C417.848 315.774 418.079 315.914 418.332 316.002C418.585 316.09 418.854 316.125 419.121 316.104H524.494C524.749 316.104 525.001 316.054 525.236 315.957C525.472 315.859 525.686 315.716 525.866 315.536C526.046 315.356 526.189 315.142 526.287 314.907C526.384 314.671 526.434 314.419 526.434 314.164C526.455 313.897 526.42 313.629 526.332 313.376C526.243 313.123 526.104 312.891 525.922 312.695C525.739 312.498 525.518 312.342 525.273 312.235C525.027 312.128 524.762 312.074 524.494 312.075" fill="#67A2E6"/>
<path d="M565.833 311.627H535.535C534.981 311.627 534.449 311.847 534.057 312.239C533.665 312.631 533.445 313.162 533.445 313.716V314.015C533.445 314.289 533.499 314.561 533.604 314.815C533.709 315.068 533.863 315.298 534.057 315.492C534.251 315.686 534.482 315.84 534.735 315.945C534.989 316.05 535.26 316.104 535.535 316.104H565.833C566.108 316.104 566.379 316.05 566.633 315.945C566.887 315.84 567.117 315.686 567.311 315.492C567.505 315.298 567.659 315.068 567.764 314.815C567.869 314.561 567.923 314.289 567.923 314.015V313.716C567.923 313.162 567.703 312.631 567.311 312.239C566.919 311.847 566.388 311.627 565.833 311.627" fill="#67A2E6"/>
<path d="M490.907 360.284H472.399C470.751 360.284 469.414 361.62 469.414 363.269V378.522C469.414 380.171 470.751 381.507 472.399 381.507H490.907C492.555 381.507 493.892 380.171 493.892 378.522V363.269C493.892 361.62 492.555 360.284 490.907 360.284Z" fill="#4167AA"/>
<path d="M483 371.627L484.492 375.955H478.821L480.313 371.627C479.856 371.381 479.475 371.014 479.212 370.567C478.949 370.12 478.813 369.609 478.821 369.09C478.821 368.337 479.119 367.616 479.651 367.084C480.183 366.552 480.904 366.254 481.656 366.254C482.035 366.232 482.413 366.291 482.767 366.425C483.121 366.56 483.442 366.768 483.71 367.036C483.978 367.304 484.186 367.625 484.321 367.979C484.455 368.333 484.514 368.711 484.492 369.09C484.5 369.609 484.364 370.12 484.101 370.567C483.838 371.014 483.457 371.381 483 371.627V371.627Z" fill="#343D5B"/>
<path d="M491.206 360.433H487.027V355.657C487.027 354.218 486.466 352.835 485.463 351.804C484.459 350.772 483.092 350.173 481.654 350.134C480.201 350.172 478.818 350.766 477.791 351.794C476.763 352.821 476.169 354.204 476.131 355.657V358.045H472.102V355.657C472.102 353.123 473.108 350.694 474.899 348.902C476.691 347.111 479.12 346.104 481.654 346.104C484.187 346.104 486.617 347.111 488.408 348.902C490.2 350.694 491.206 353.123 491.206 355.657V360.433Z" fill="#8697BF"/>
<path d="M528.071 395.358H433.743C432.094 395.358 430.758 396.695 430.758 398.343V407.284C430.758 408.932 432.094 410.269 433.743 410.269H528.071C529.72 410.269 531.056 408.932 531.056 407.284V398.343C531.056 396.695 529.72 395.358 528.071 395.358Z" fill="white"/>
<path d="M528.071 417.149H433.743C432.094 417.149 430.758 418.486 430.758 420.134V429.075C430.758 430.723 432.094 432.06 433.743 432.06H528.071C529.72 432.06 531.056 430.723 531.056 429.075V420.134C531.056 418.486 529.72 417.149 528.071 417.149Z" fill="white"/>
<path d="M518.821 404.91H443.448C443.193 404.91 442.941 404.86 442.706 404.763C442.47 404.665 442.256 404.522 442.076 404.342C441.896 404.162 441.753 403.948 441.656 403.713C441.558 403.477 441.508 403.225 441.508 402.97C441.507 402.722 441.558 402.476 441.657 402.248C441.756 402.021 441.902 401.816 442.084 401.648C442.267 401.479 442.482 401.351 442.717 401.27C442.952 401.189 443.201 401.158 443.448 401.179H518.821C519.296 401.179 519.752 401.368 520.088 401.704C520.424 402.04 520.612 402.495 520.612 402.97C520.633 403.218 520.602 403.467 520.521 403.701C520.441 403.936 520.312 404.152 520.144 404.334C519.975 404.517 519.771 404.662 519.543 404.761C519.315 404.861 519.07 404.911 518.821 404.91V404.91Z" fill="#C3C9E0"/>
<path d="M457.779 425.209C457.779 425.593 457.665 425.968 457.452 426.287C457.239 426.606 456.936 426.855 456.581 427.002C456.227 427.148 455.837 427.187 455.46 427.112C455.084 427.037 454.738 426.852 454.467 426.581C454.195 426.31 454.011 425.964 453.936 425.588C453.861 425.211 453.899 424.821 454.046 424.466C454.193 424.112 454.442 423.809 454.761 423.596C455.08 423.382 455.455 423.269 455.839 423.269C456.353 423.269 456.847 423.473 457.211 423.837C457.575 424.201 457.779 424.694 457.779 425.209V425.209Z" fill="#C3C9E0"/>
<path d="M464.943 425.209C464.943 425.593 464.829 425.968 464.616 426.287C464.403 426.606 464.1 426.855 463.745 427.002C463.391 427.148 463.001 427.187 462.624 427.112C462.248 427.037 461.902 426.852 461.631 426.581C461.359 426.31 461.175 425.964 461.1 425.588C461.025 425.211 461.063 424.821 461.21 424.466C461.357 424.112 461.606 423.809 461.925 423.596C462.244 423.382 462.619 423.269 463.003 423.269C463.517 423.269 464.011 423.473 464.375 423.837C464.739 424.201 464.943 424.694 464.943 425.209Z" fill="#C3C9E0"/>
<path d="M472.256 425.209C472.256 425.593 472.142 425.968 471.929 426.287C471.715 426.606 471.412 426.855 471.058 427.002C470.703 427.148 470.313 427.187 469.937 427.112C469.56 427.037 469.215 426.852 468.943 426.581C468.672 426.31 468.487 425.964 468.412 425.588C468.337 425.211 468.376 424.821 468.523 424.466C468.67 424.112 468.918 423.809 469.237 423.596C469.556 423.382 469.932 423.269 470.315 423.269C470.83 423.269 471.323 423.473 471.687 423.837C472.051 424.201 472.256 424.694 472.256 425.209V425.209Z" fill="#C3C9E0"/>
<path d="M479.42 425.209C479.42 425.593 479.306 425.968 479.093 426.287C478.879 426.606 478.576 426.855 478.222 427.002C477.867 427.148 477.477 427.187 477.101 427.112C476.724 427.037 476.379 426.852 476.107 426.581C475.836 426.31 475.651 425.964 475.576 425.588C475.501 425.211 475.54 424.821 475.687 424.466C475.834 424.112 476.082 423.809 476.401 423.596C476.72 423.382 477.096 423.269 477.479 423.269C477.994 423.269 478.488 423.473 478.851 423.837C479.215 424.201 479.42 424.694 479.42 425.209Z" fill="#C3C9E0"/>
<path d="M486.583 425.209C486.604 425.456 486.573 425.705 486.492 425.94C486.411 426.175 486.283 426.391 486.114 426.573C485.946 426.756 485.741 426.901 485.514 427C485.286 427.099 485.04 427.15 484.792 427.149C484.537 427.149 484.285 427.099 484.049 427.002C483.814 426.904 483.6 426.761 483.42 426.581C483.24 426.401 483.097 426.187 482.999 425.952C482.902 425.716 482.852 425.464 482.852 425.209C482.852 424.954 482.902 424.702 482.999 424.466C483.097 424.231 483.24 424.017 483.42 423.837C483.6 423.657 483.814 423.514 484.049 423.416C484.285 423.319 484.537 423.269 484.792 423.269C485.04 423.268 485.286 423.319 485.514 423.418C485.741 423.517 485.946 423.662 486.114 423.845C486.283 424.027 486.411 424.243 486.492 424.478C486.573 424.712 486.604 424.962 486.583 425.209V425.209Z" fill="#C3C9E0"/>
<path d="M493.896 425.209C493.896 425.593 493.782 425.968 493.569 426.287C493.356 426.606 493.053 426.855 492.698 427.002C492.344 427.148 491.954 427.187 491.577 427.112C491.201 427.037 490.855 426.852 490.584 426.581C490.313 426.31 490.128 425.964 490.053 425.588C489.978 425.211 490.016 424.821 490.163 424.466C490.31 424.112 490.559 423.809 490.878 423.596C491.197 423.382 491.572 423.269 491.956 423.269C492.471 423.269 492.964 423.473 493.328 423.837C493.692 424.201 493.896 424.694 493.896 425.209Z" fill="#C3C9E0"/>
<path d="M501.06 425.209C501.06 425.593 500.946 425.968 500.733 426.287C500.52 426.606 500.217 426.855 499.863 427.002C499.508 427.148 499.118 427.187 498.741 427.112C498.365 427.037 498.019 426.852 497.748 426.581C497.477 426.31 497.292 425.964 497.217 425.588C497.142 425.211 497.181 424.821 497.327 424.466C497.474 424.112 497.723 423.809 498.042 423.596C498.361 423.382 498.736 423.269 499.12 423.269C499.635 423.269 500.128 423.473 500.492 423.837C500.856 424.201 501.06 424.694 501.06 425.209Z" fill="#C3C9E0"/>
<path d="M508.373 425.209C508.373 425.593 508.259 425.968 508.046 426.287C507.833 426.606 507.53 426.855 507.175 427.002C506.82 427.148 506.43 427.187 506.054 427.112C505.678 427.037 505.332 426.852 505.06 426.581C504.789 426.31 504.604 425.964 504.529 425.588C504.455 425.211 504.493 424.821 504.64 424.466C504.787 424.112 505.035 423.809 505.354 423.596C505.674 423.382 506.049 423.269 506.432 423.269C506.947 423.269 507.441 423.473 507.804 423.837C508.168 424.201 508.373 424.694 508.373 425.209Z" fill="#C3C9E0"/>
<path d="M703 608.956C703 618.209 578.821 625.821 425.836 625.821C272.851 625.821 148.672 618.209 148.672 608.956C148.672 599.702 272.702 592.09 425.836 592.09C578.97 592.09 703 599.553 703 608.956Z" fill="#E1E6F4"/>
<path d="M478.37 601.776C478.37 607.597 419.414 612.373 346.728 612.373C274.041 612.373 215.086 607.597 215.086 601.776C215.086 595.955 274.041 591.03 346.728 591.03C419.414 591.03 478.37 595.806 478.37 601.776Z" fill="#9EA9CC"/>
<path d="M644.943 598.791C644.943 601.478 616.884 603.716 582.257 603.716C547.63 603.716 519.57 601.478 519.57 598.791C519.57 596.105 547.63 593.866 582.257 593.866C616.884 593.866 644.943 596.105 644.943 598.791Z" fill="#9EA9CC"/>
<path d="M453.894 580.134C449.715 598.791 424.939 604.164 367.476 605.209C310.014 606.254 249.118 603.567 215.685 589.09C182.252 574.612 196.73 520.881 213.297 494.313C229.864 467.746 233.596 468.94 246.282 451.776C254.193 441.328 260.76 437 266.73 436.702C270.533 436.558 274.272 437.716 277.327 439.985C286.282 445.657 310.312 465.806 310.312 465.806C310.312 465.806 385.387 536.702 417.029 545.358C434.043 549.985 444.491 554.164 450.014 559.985C455.536 565.806 455.835 571.328 453.894 580.134Z" fill="#174EBD"/>
<path d="M306.582 544.91H305.836L296.433 546.104C302.403 547.448 308.672 548.493 314.791 549.388C315.537 547.896 309.866 544.761 306.582 544.761M291.657 466.552C285.537 468.94 273.299 477.597 263.746 509.836C258.224 528.194 270.761 538.194 288.522 543.866L295.239 542.97C303.448 542.075 292.104 542.075 281.06 534.91C270.015 527.746 275.239 512.672 275.239 512.672C278.373 526.552 282.552 525.209 287.328 528.045C287.808 528.395 288.377 528.602 288.97 528.642C291.209 528.642 288.672 521.776 290.761 509.836C291.668 505.375 293.174 501.057 295.239 497C295.239 495.955 295.388 494.612 295.537 493.119C295.669 492.03 295.718 490.933 295.687 489.836C295.73 487.096 295.63 484.356 295.388 481.627H294.791C294.045 481.328 293.746 481.478 293.299 479.388C292.851 477.299 292.403 473.418 291.657 466.851" fill="#2D5EC2"/>
<path d="M453.894 580.134C449.715 598.791 424.939 604.164 367.476 605.209C310.014 606.254 249.118 603.567 215.685 589.09C182.252 574.612 196.73 520.881 213.297 494.313C229.864 467.746 233.596 468.94 246.282 451.776C254.193 441.328 260.76 437 266.73 436.701C259.715 441.478 247.775 451.03 243.894 463.716C238.372 482.075 229.715 492.821 216.133 505.06C202.551 517.298 201.208 554.612 213.297 569.836C225.387 585.06 263.148 592.821 311.805 597.597C360.461 602.373 441.506 599.537 446.432 580.731C448.202 573.928 449.4 566.988 450.014 559.985C454.939 565.06 455.835 571.328 453.894 580.134Z" fill="#2D5EC2"/>
<path d="M275.235 512.821C275.235 512.821 270.16 527.746 281.056 535.06C291.951 542.373 303.444 542.224 295.235 543.119C287.026 544.015 270.757 547.746 277.623 547.746C284.489 547.746 302.101 545.657 305.832 545.06C309.563 544.463 318.22 549.388 313.444 550.134C308.668 550.881 306.578 556.702 306.578 556.702C306.578 556.702 312.548 549.985 325.235 553.119C337.922 556.254 335.832 553.866 342.996 559.239C350.16 564.612 354.787 566.701 350.011 561.627C345.235 556.552 341.056 553.269 342.996 554.91C344.936 556.552 350.011 555.657 357.772 555.657C368.071 555.657 381.653 555.657 390.459 557.448C405.683 560.433 421.504 575.358 421.504 575.358L405.384 553.567C405.384 553.567 301.056 531.328 296.877 521.03C292.698 510.731 305.235 481.03 305.235 481.03C305.235 481.03 293.145 496.104 290.757 509.985C288.369 523.866 292.101 531.03 287.325 528.194C282.548 525.358 278.369 526.701 275.235 512.821" fill="#174EBD"/>
<path d="M219.868 523.716C219.868 523.716 200.166 553.866 240.614 572.075C281.062 590.284 309.271 587.896 310.166 586.552C311.062 585.209 315.689 581.328 308.226 575.358C300.763 569.388 249.42 560.881 242.554 547.448C235.689 534.015 232.703 513.567 219.868 523.716Z" fill="#2D5EC2"/>
<path d="M322.556 578.94C322.556 578.94 386.287 576.851 385.243 584.612C384.198 592.373 384.347 593.866 362.108 593.866C339.87 593.866 306.735 585.507 322.556 578.94Z" fill="#2D5EC2"/>
<path d="M342.553 374.313C342.553 374.313 331.061 363.119 318.673 367.896C306.285 372.672 299.419 385.657 298.971 394.463C298.523 403.269 300.911 406.851 297.777 410.433C294.643 414.015 288.971 418.493 293.15 423.119C297.329 427.746 287.329 425.209 292.105 432.97C296.882 440.731 342.553 432.672 342.553 432.672C342.553 432.672 348.523 429.09 346.135 424.313C343.747 419.537 346.285 419.687 346.732 416.254C347.18 412.821 343.897 413.119 345.688 408.045C347.479 402.97 353.001 392.224 352.255 384.313C351.508 376.403 342.553 374.313 342.553 374.313" fill="#252549"/>
<path d="M311.511 420.731C311.511 420.731 313.302 420.881 313.153 418.642C313.004 416.403 311.959 417.597 315.242 412.373C318.526 407.149 317.63 406.552 316.436 403.567C315.242 400.582 320.168 398.642 323.153 394.463C326.138 390.284 329.869 384.91 333.153 382.075C336.436 379.239 339.272 378.94 341.063 379.836C342.115 380.494 342.906 381.496 343.302 382.672C343.302 382.672 342.854 401.328 338.974 408.194C335.093 415.06 332.257 415.209 328.825 414.164C328.825 414.164 327.63 420.134 328.377 422.373C329.123 424.612 336.586 427.597 332.257 433.716C327.929 439.836 316.287 442.672 312.257 435.955C308.227 429.239 311.511 420.731 311.511 420.731" fill="#FFBF9F"/>
<path d="M448.82 570.731C448.82 570.731 459.119 572.97 462.85 574.91C466.581 576.851 471.507 577.448 473.746 574.164C475.984 570.881 475.537 568.791 479.268 565.806C482.999 562.821 491.358 558.343 490.014 555.209C488.671 552.075 485.984 552.821 483.596 555.209C481.208 557.597 470.313 559.388 468.373 560.433C466.432 561.478 459.567 561.328 458.074 561.328C455.288 560.716 452.545 559.918 449.865 558.94L448.82 570.731" fill="#FFBF9F"/>
<path d="M435.391 585.657C435.391 585.657 443.898 591.925 445.092 595.955C446.286 599.985 449.122 604.015 453.003 603.418C456.883 602.821 458.226 601.03 463.003 601.627C467.779 602.224 476.585 605.507 477.928 602.373C479.271 599.239 476.883 597.597 473.6 597.597C470.316 597.597 461.51 590.731 459.42 589.985C455.725 588.184 452.181 586.088 448.823 583.716L444.644 578.194L435.391 585.657Z" fill="#FFBF9F"/>
<path d="M453.898 572.522C453.524 573.405 453.075 574.254 452.555 575.06C451.212 576.552 444.495 572.224 444.048 572.075C444.645 572.522 448.227 576.403 448.824 578.94C449.57 581.478 434.943 588.493 432.257 589.09C429.57 589.687 409.421 561.627 409.421 561.627C409.421 561.627 386.734 554.761 384.197 553.567C381.66 552.373 371.66 552.97 360.316 553.119L336.137 553.567L324.197 549.09C318.077 546.702 295.391 539.985 295.391 539.985C295.391 539.985 291.062 536.552 291.062 522.821C291.062 509.09 298.674 495.657 298.674 495.657L310.018 496.552L343.003 498.94L399.271 511.627L405.391 515.06L423.749 543.119L438.077 548.343C446.883 551.925 456.585 556.104 457.331 557.896C458.077 559.687 455.839 568.343 453.898 572.522" fill="#262C2F"/>
<path d="M408.523 561.328L409.419 561.627L408.523 561.328Z" fill="#5D3C2E"/>
<path d="M337.031 523.716C337.031 523.716 361.658 530.731 375.539 533.418C389.419 536.104 394.195 542.075 395.389 549.836C396.136 555.06 393.598 555.955 391.807 555.955H390.763L408.524 561.478L409.419 561.776C408.972 561.179 389.121 535.657 387.778 534.313C386.434 532.97 337.031 523.866 337.031 523.866" fill="#262C2F"/>
<path d="M423.75 543.119L444.049 571.925C444.347 572.075 449.272 575.209 451.66 575.209C451.823 575.233 451.988 575.218 452.144 575.167C452.299 575.115 452.441 575.027 452.556 574.91C453.076 574.105 453.525 573.256 453.899 572.373C450.763 570.803 448.011 568.56 445.84 565.806C442.556 561.179 439.869 554.164 438.078 548.194L423.75 542.97" fill="#262C2F"/>
<path d="M296.734 499.537C294.495 504.463 291.062 513.567 291.062 522.821C291.062 536.552 295.391 539.985 295.391 539.985C295.391 539.985 318.077 546.701 324.197 549.09L336.137 553.567L360.316 553.119C341.212 550.582 315.54 541.179 308.077 526.403C304.197 518.94 305.988 508.642 308.824 500.134L296.734 499.537Z" fill="#262C2F"/>
<path d="M352.551 478.194C352.551 478.194 355.685 489.388 356.879 489.836C358.396 490.256 359.943 490.555 361.506 490.731L363.745 477L362.253 474.91C362.253 474.91 351.059 472.821 352.551 478.194Z" fill="#FFBF9F"/>
<path d="M363.146 474.91C363.146 475.358 361.952 475.955 360.31 476.552C357.555 477.457 354.697 478.008 351.803 478.194C350.758 477.746 347.176 465.358 347.176 465.358V465.806C347.044 466.246 346.945 466.695 346.877 467.149C346.579 469.239 346.131 473.269 345.534 478.194C345.385 480.134 345.236 482.373 345.236 484.463C345.236 486.552 345.385 491.925 345.385 494.612C345.385 497.299 345.534 497.597 345.534 498.194C345.534 498.791 340.609 500.881 330.012 500.731C319.415 500.582 298.221 499.985 296.43 499.388C294.639 498.791 295.385 496.701 295.534 493.269C295.683 489.836 295.385 481.627 295.385 481.627H294.788C294.042 481.328 293.743 481.478 293.295 479.388C292.848 477.298 288.221 442.373 289.564 433.119C290.907 423.866 311.504 420.881 311.504 420.881C311.504 420.881 313.445 423.866 315.534 426.403C317.624 428.94 325.534 433.567 326.131 433.567C326.728 433.567 328.221 432.373 329.564 428.642C329.966 427.614 330.067 426.492 329.855 425.409C329.644 424.325 329.129 423.324 328.37 422.522C330.445 422.617 332.5 422.968 334.489 423.567C338.37 424.612 346.43 428.045 348.071 431.627C349.713 435.209 362.997 473.418 363.146 475.06" fill="#94A2F2"/>
<path d="M346.884 467.149C346.585 469.239 346.138 473.269 345.541 478.194C345.391 480.134 345.242 482.373 345.242 484.463L346.884 467.149Z" fill="#7972D3"/>
<path d="M306.883 446.701C306.883 446.701 309.569 474.463 309.569 476.552C309.569 478.642 308.674 478.642 308.375 478.642H308.226C308.226 478.94 308.972 486.851 310.166 487.298C311.36 487.746 341.062 497.597 342.554 497.597L345.54 497.298C345.552 496.45 345.502 495.602 345.39 494.761V494.761C338.886 493.54 332.457 491.945 326.137 489.985C315.987 486.552 309.719 483.269 310.465 480.582C311.211 477.896 319.271 477.895 326.584 477.895L334.942 478.194C337.033 478.414 339.046 479.106 340.83 480.218C342.614 481.33 344.122 482.832 345.241 484.612V484.612C345.241 482.522 345.39 480.284 345.54 478.343C346.137 473.418 346.584 469.388 346.883 467.298L347.778 458.343C347.778 458.343 344.495 463.567 340.017 465.06C336.541 465.84 332.982 466.191 329.42 466.104C323.599 466.104 317.331 465.507 314.345 463.866C308.972 460.881 306.883 446.851 306.883 446.851" fill="#727CD9"/>
<path d="M295.391 481.776C295.634 484.505 295.733 487.245 295.69 489.985C295.722 491.082 295.672 492.179 295.541 493.269C295.391 494.91 295.242 496.403 295.242 497.299C295.242 498.194 295.541 499.09 296.436 499.388C297.332 499.687 311.212 500.284 322.108 500.433C316.884 499.537 311.511 498.642 307.929 497.597C300.168 495.358 298.377 493.866 297.481 491.478C296.594 488.288 295.896 485.048 295.391 481.776" fill="#727CD9"/>
<path d="M295.391 481.627C297.543 481.503 299.686 481.254 301.809 480.881C304.063 480.438 306.231 479.631 308.226 478.493C308.226 478.493 308.973 486.702 310.167 487.149C311.361 487.597 341.062 497.448 342.555 497.448C344.047 497.448 348.376 496.403 351.212 498.343C354.025 500.583 356.669 503.028 359.122 505.657C359.122 505.657 359.42 509.985 357.182 509.985C354.943 509.985 354.644 505.06 349.122 506.104C347.032 506.552 344.644 507.448 342.406 507C339.982 506.334 337.704 505.22 335.689 503.716C333.003 501.776 315.689 499.836 307.928 497.597C300.167 495.358 298.376 493.866 297.48 491.478C296.591 488.238 295.894 484.949 295.391 481.627" fill="#FFBF9F"/>
<path d="M343 442.522L347.776 458.194L347.179 465.806V465.358C347.179 465.358 350.761 477.746 351.806 478.194H352.254C354.996 477.966 357.701 477.415 360.313 476.552L356.433 475.955C352.403 475.209 350.164 465.806 350.164 461.179C350.164 456.552 343.448 443.269 343 442.522Z" fill="#727CD9"/>
<path d="M309.715 428.045C308.521 428.045 307.775 428.94 308.074 431.328C308.074 431.328 313.148 450.134 325.387 451.776H326.88C337.775 451.776 339.118 434.463 338.074 431.328C337.029 428.194 337.029 429.09 336.283 429.09C334.861 429.387 333.591 430.181 332.701 431.328C330.611 433.269 327.477 435.358 324.342 435.358C323.354 435.321 322.385 435.067 321.506 434.612C318.82 433.119 312.701 428.045 309.715 428.045" fill="#727CD9"/>
<path d="M444.047 572.075C444.644 572.522 448.226 576.403 448.823 578.94C446.286 575.507 444.345 572.522 444.047 572.075Z" fill="white"/>
<path d="M328.821 414.164L322.403 410.881C321.72 410.373 320.966 409.97 320.164 409.687C320.164 409.687 324.791 420.881 325.686 419.836C326.855 418.016 327.902 416.122 328.821 414.164Z" fill="#FF9B80"/>
<path d="M423.747 471.776L417.031 510.134L416.733 511.627C416.734 511.797 416.699 511.966 416.63 512.121C416.561 512.277 416.459 512.416 416.332 512.529C416.205 512.642 416.055 512.726 415.892 512.777C415.73 512.827 415.558 512.842 415.389 512.821H332.703C332.346 512.821 332.005 512.679 331.753 512.427C331.501 512.176 331.359 511.834 331.359 511.478V511.478C331.358 511.106 331.494 510.748 331.743 510.472C331.991 510.196 332.333 510.022 332.703 509.985H357.18C357.337 510.006 357.497 509.995 357.65 509.954C357.803 509.913 357.946 509.841 358.071 509.744C358.196 509.647 358.3 509.526 358.378 509.388C358.456 509.25 358.505 509.098 358.524 508.94L364.643 471.328C364.734 471.038 364.911 470.783 365.151 470.596C365.391 470.409 365.683 470.3 365.986 470.284H422.404C422.594 470.282 422.782 470.321 422.955 470.398C423.129 470.475 423.284 470.587 423.411 470.728C423.538 470.869 423.633 471.036 423.691 471.216C423.749 471.397 423.769 471.588 423.747 471.776Z" fill="#696B84"/>
<path d="M394.192 489.836C394.192 491.776 393.446 493.418 392.401 493.418C391.356 493.418 390.461 491.776 390.461 489.836C390.461 487.896 391.356 486.403 392.401 486.403C393.446 486.403 394.192 487.896 394.192 489.836Z" fill="#8186AA"/>
<path d="M367.628 470.284H365.986C365.683 470.3 365.391 470.409 365.151 470.596C364.911 470.782 364.734 471.038 364.643 471.328L363.747 477L363.449 478.343L359.121 505.657L358.524 508.94C358.505 509.098 358.456 509.25 358.378 509.388C358.3 509.526 358.196 509.647 358.071 509.744C357.946 509.841 357.803 509.913 357.65 509.954C357.497 509.995 357.337 510.006 357.18 509.985H332.703C332.333 510.022 331.991 510.196 331.743 510.472C331.494 510.748 331.358 511.106 331.359 511.478V511.478C331.359 511.834 331.501 512.176 331.753 512.427C332.005 512.679 332.346 512.821 332.703 512.821H415.389C415.558 512.842 415.73 512.827 415.892 512.777C416.055 512.726 416.205 512.642 416.332 512.529C416.459 512.416 416.561 512.277 416.63 512.121C416.699 511.966 416.734 511.797 416.733 511.627L417.031 510.134H364.344C363.935 510.145 363.529 510.061 363.157 509.891C362.785 509.72 362.457 509.467 362.198 509.15C361.939 508.833 361.755 508.461 361.662 508.063C361.568 507.664 361.567 507.25 361.658 506.851L367.628 470.284" fill="#535777"/>
<path d="M635.388 548.194H538.671C537.93 548.194 537.328 548.795 537.328 549.537V557.91C537.328 558.652 537.93 559.254 538.671 559.254H635.388C636.13 559.254 636.731 558.652 636.731 557.91V549.537C636.731 548.795 636.13 548.194 635.388 548.194Z" fill="#94624F"/>
<path d="M636.582 554.91V557.896C636.582 558.252 636.44 558.593 636.188 558.845C635.936 559.097 635.595 559.239 635.239 559.239H538.671C538.315 559.239 537.973 559.097 537.722 558.845C537.47 558.593 537.328 558.252 537.328 557.896V549.537C537.328 549.181 537.47 548.839 537.722 548.587C537.973 548.336 538.315 548.194 538.671 548.194H543.746V552.075C543.745 552.802 544.023 553.501 544.523 554.029C545.023 554.557 545.707 554.872 546.433 554.91H636.582Z" fill="#9D776A"/>
<path d="M552.402 559.239L541.954 599.537C541.84 600.064 541.586 600.551 541.218 600.945C540.85 601.339 540.382 601.626 539.864 601.776C539.615 601.911 539.341 601.994 539.059 602.02C538.776 602.045 538.492 602.013 538.222 601.925C537.498 601.785 536.847 601.394 536.383 600.82C535.919 600.247 535.672 599.529 535.685 598.791C535.662 598.533 535.714 598.274 535.834 598.045L544.193 563.567L545.387 559.239H552.402Z" fill="#94624F"/>
<path d="M552.404 559.239L541.957 599.537C541.843 600.064 541.589 600.551 541.221 600.945C540.853 601.339 540.385 601.626 539.867 601.776C544.345 587.448 547.778 563.567 547.778 563.567H544.196L545.39 559.239H552.404Z" fill="#9D776A"/>
<path d="M619.867 559.239L630.315 599.537C630.456 600.076 630.737 600.567 631.131 600.96C631.524 601.354 632.015 601.635 632.554 601.776C632.803 601.911 633.077 601.994 633.359 602.02C633.642 602.045 633.926 602.013 634.196 601.925C634.892 601.755 635.509 601.351 635.944 600.78C636.378 600.21 636.604 599.508 636.584 598.791V598.045L628.076 563.567L627.031 559.239H619.867Z" fill="#94624F"/>
<path d="M619.867 559.239L630.315 599.537C630.456 600.076 630.737 600.567 631.131 600.96C631.524 601.354 632.015 601.635 632.554 601.776C627.927 587.448 624.494 563.567 624.494 563.567H628.076L627.031 559.239H619.867Z" fill="#9D776A"/>
<path d="M576.13 540.284C576.13 540.284 570.757 539.687 570.608 536.254C570.459 532.821 568.668 533.567 566.727 533.567C566.294 533.628 565.853 533.582 565.442 533.433C565.031 533.284 564.662 533.037 564.368 532.714C564.074 532.39 563.863 532 563.754 531.576C563.645 531.153 563.641 530.709 563.742 530.284C564.19 528.194 561.056 526.403 562.847 525.507C564.638 524.612 566.13 524.612 567.026 526.254C567.921 527.896 569.862 528.493 572.25 527.448C574.638 526.403 576.13 527 575.384 529.687C574.638 532.373 578.519 528.642 579.563 533.418C580.608 538.194 576.13 540.284 576.13 540.284Z" fill="#1D7E8E"/>
<path d="M584.047 539.388C584.047 539.388 579.57 534.164 581.062 531.478C582.555 528.791 585.092 530.731 585.689 527.597C586.286 524.463 587.182 523.418 590.018 524.015C592.853 524.612 590.913 519.687 594.645 520.582C598.376 521.478 597.033 524.313 594.645 526.104C592.256 527.896 597.331 530.134 593.6 531.776C589.868 533.418 587.48 532.075 588.824 534.313C590.167 536.552 588.077 539.09 586.436 539.388C585.654 539.604 584.829 539.604 584.047 539.388Z" fill="#1D7E8E"/>
<path d="M578.523 538.194C578.523 538.194 574.046 537 575.538 533.119C577.031 529.239 571.061 529.388 572.553 526.403C574.046 523.418 572.702 522.373 571.508 521.478C570.314 520.582 572.105 518.194 574.941 519.239C577.777 520.284 575.389 524.91 578.971 525.507C582.553 526.104 583.001 528.194 582.105 529.985C581.21 531.776 585.986 532.224 585.687 535.358C585.389 538.493 578.523 538.194 578.523 538.194Z" fill="#01A09C"/>
<path d="M592.549 542.522C592.592 543.086 592.489 543.652 592.25 544.164C591.922 545.333 591.218 546.361 590.247 547.09C589.275 547.818 588.091 548.206 586.877 548.194H573.743C572.239 548.194 570.796 547.596 569.732 546.533C568.669 545.469 568.071 544.027 568.071 542.522C568.051 541.369 568.383 540.236 569.023 539.276C569.663 538.316 570.581 537.574 571.653 537.149C572.307 536.844 573.021 536.691 573.743 536.701H586.877C587.635 536.701 588.385 536.853 589.083 537.147C589.781 537.441 590.413 537.873 590.941 538.415C591.47 538.958 591.885 539.601 592.161 540.306C592.437 541.012 592.569 541.765 592.549 542.522V542.522Z" fill="#C3C9E0"/>
<path d="M592.25 544.164C591.922 545.333 591.218 546.361 590.247 547.09C589.275 547.818 588.091 548.206 586.877 548.194H573.743C572.239 548.194 570.796 547.596 569.732 546.533C568.669 545.469 568.071 544.027 568.071 542.522C568.051 541.369 568.383 540.236 569.023 539.276C569.663 538.316 570.581 537.574 571.653 537.149C571.958 537.803 572.112 538.517 572.101 539.239C572.101 540.545 572.62 541.798 573.544 542.722C574.467 543.645 575.72 544.164 577.026 544.164H592.25Z" fill="#9EA9CC"/>
<path d="M597.182 439.388H493.749C490.699 439.388 488.227 441.861 488.227 444.91V493.985C488.227 497.035 490.699 499.507 493.749 499.507H597.182C600.232 499.507 602.704 497.035 602.704 493.985V444.91C602.704 441.861 600.232 439.388 597.182 439.388Z" fill="#E1E6F4"/>
<path d="M602.704 444.91V449.239H488.227V444.91C488.224 443.849 488.535 442.81 489.122 441.925C489.62 441.15 490.305 440.511 491.113 440.068C491.921 439.625 492.827 439.391 493.749 439.388H597.182C598.101 439.404 599.002 439.644 599.808 440.086C600.614 440.528 601.301 441.159 601.809 441.925C602.396 442.81 602.707 443.849 602.704 444.91Z" fill="#6776E8"/>
<path d="M566.43 462.97H524.938C524.114 462.97 523.445 463.638 523.445 464.463V467.104C523.445 467.929 524.114 468.597 524.938 468.597H566.43C567.255 468.597 567.923 467.929 567.923 467.104V464.463C567.923 463.638 567.255 462.97 566.43 462.97Z" fill="#C3C9E0"/>
<path d="M521.803 473.418H512.102C511.278 473.418 510.609 474.086 510.609 474.91V487.866C510.609 488.69 511.278 489.358 512.102 489.358H521.803C522.628 489.358 523.296 488.69 523.296 487.866V474.91C523.296 474.086 522.628 473.418 521.803 473.418Z" fill="#8697BF"/>
<path d="M541.358 473.418H531.657C530.832 473.418 530.164 474.086 530.164 474.91V487.866C530.164 488.69 530.832 489.358 531.657 489.358H541.358C542.182 489.358 542.851 488.69 542.851 487.866V474.91C542.851 474.086 542.182 473.418 541.358 473.418Z" fill="#8697BF"/>
<path d="M560.913 473.418H551.211C550.387 473.418 549.719 474.086 549.719 474.91V487.866C549.719 488.69 550.387 489.358 551.211 489.358H560.913C561.737 489.358 562.405 488.69 562.405 487.866V474.91C562.405 474.086 561.737 473.418 560.913 473.418Z" fill="#8697BF"/>
<path d="M580.311 473.418H570.61C569.785 473.418 569.117 474.086 569.117 474.91V487.866C569.117 488.69 569.785 489.358 570.61 489.358H580.311C581.136 489.358 581.804 488.69 581.804 487.866V474.91C581.804 474.086 581.136 473.418 580.311 473.418Z" fill="#8697BF"/>
<path d="M496.579 493.866H602.698C602.698 495.33 602.117 496.735 601.081 497.771C600.045 498.806 598.641 499.388 597.176 499.388H493.743C493.012 499.409 492.285 499.28 491.606 499.01C490.927 498.739 490.309 498.333 489.792 497.816C489.276 497.299 488.869 496.682 488.599 496.003C488.329 495.324 488.2 494.596 488.221 493.866V449.687C488.352 449.54 488.513 449.424 488.694 449.347C488.874 449.269 489.069 449.233 489.266 449.239H600.907C601.382 449.239 601.838 449.427 602.174 449.763C602.51 450.099 602.698 450.555 602.698 451.03C602.698 451.505 602.51 451.96 602.174 452.296C601.838 452.632 601.382 452.821 600.907 452.821H496.579C496.351 452.8 496.122 452.827 495.905 452.9C495.688 452.973 495.489 453.091 495.32 453.246C495.152 453.4 495.017 453.588 494.926 453.798C494.834 454.007 494.787 454.234 494.788 454.463V492.075C494.788 492.55 494.977 493.005 495.313 493.341C495.649 493.677 496.104 493.866 496.579 493.866V493.866Z" fill="#C3C9E0"/>
<path d="M601.804 441.925H489.117C489.615 441.15 490.3 440.511 491.108 440.068C491.916 439.625 492.822 439.391 493.744 439.388H597.177C598.096 439.404 598.997 439.644 599.803 440.086C600.609 440.528 601.296 441.159 601.804 441.925V441.925Z" fill="#67AFE5"/>
</g>
<g opacity="0.5">
<g filter="url(#filter0_f_3183_254450)">
<path d="M828.425 187.411C828.788 187.222 829.215 187.242 829.562 187.465C829.908 187.687 830.115 188.071 830.115 188.492V194.964C830.115 195.385 829.908 195.77 829.562 195.991C829.372 196.112 829.16 196.174 828.947 196.174C828.769 196.174 828.591 196.132 828.424 196.044L818.938 191.806L828.425 187.411Z" fill="#3A37A6"/>
</g>
<path d="M832.077 184.689C832.638 184.394 833.297 184.425 833.833 184.774C834.369 185.124 834.689 185.728 834.689 186.389V196.56C834.689 197.221 834.369 197.825 833.833 198.174C833.54 198.363 833.213 198.46 832.883 198.46C832.608 198.46 832.333 198.394 832.075 198.257L817.414 191.596L832.077 184.689Z" fill="url(#paint1_linear_3183_254450)"/>
<g filter="url(#filter1_b_3183_254450)">
<path d="M822.534 201.001H815.081C811.965 201.001 809.789 198.851 809.789 195.774V186.92C809.789 183.842 811.965 181.693 815.081 181.693H822.534C825.65 181.693 827.826 183.842 827.826 186.92V195.774C827.826 198.851 825.65 201.001 822.534 201.001Z" fill="#3A37A6" fill-opacity="0.1"/>
<path d="M815.081 201.501H822.534C824.21 201.501 825.663 200.921 826.7 199.897C827.737 198.872 828.326 197.434 828.326 195.774V186.92C828.326 185.26 827.737 183.821 826.7 182.797C825.663 181.773 824.21 181.193 822.534 181.193H815.081C813.406 181.193 811.952 181.773 810.915 182.797C809.878 183.821 809.289 185.26 809.289 186.92V195.774C809.289 197.434 809.878 198.872 810.915 199.897C811.952 200.921 813.405 201.501 815.081 201.501Z" stroke="url(#paint2_linear_3183_254450)" stroke-linecap="round" stroke-linejoin="round"/>
</g>
</g>
<g opacity="0.75">
<path fill-rule="evenodd" clip-rule="evenodd" d="M407.948 160.265C408.263 159.442 408.589 158.588 409.048 157.772C410.221 155.839 412.265 154.985 414.081 155.472C415.095 155.739 416.209 156.707 416.766 157.533L421.435 164.189L424.587 165.033C426.906 165.655 428.292 167.943 427.953 170.617C427.588 173.175 426.408 177.871 425.305 180.497C424.252 183.137 421.999 184.421 419.566 183.77L416.415 182.925L408.906 186.398C408.13 186.777 406.85 187.107 405.828 186.833C405.762 186.817 405.704 186.802 405.645 186.786C403.795 186.29 402.529 184.497 402.478 182.243C402.484 181.297 402.625 180.447 402.762 179.625L402.762 179.625L402.765 179.61L402.896 178.79C403.276 176.118 406.658 163.497 407.66 161.012L407.948 160.265ZM401.528 161.759C402.005 161.344 402.715 161.399 403.115 161.883C403.511 162.368 403.445 163.098 402.969 163.511C401.643 164.664 400.619 166.397 400.084 168.394C399.549 170.39 399.569 172.404 400.141 174.065C400.347 174.661 400.038 175.326 399.452 175.549C399.234 175.63 399.001 175.641 398.78 175.582C398.424 175.487 398.14 175.217 398.017 174.863C397.294 172.766 397.256 170.262 397.913 167.812C398.569 165.363 399.854 163.213 401.528 161.759ZM400.208 157.45C399.826 156.969 399.136 156.923 398.673 157.34C396.144 159.61 394.188 162.96 393.167 166.769C392.146 170.58 392.165 174.458 393.221 177.689C393.336 178.041 393.61 178.308 393.954 178.4C394.167 178.457 394.392 178.444 394.604 178.361C395.173 178.134 395.478 177.468 395.285 176.874C394.372 174.078 394.365 170.688 395.264 167.331C396.164 163.974 397.865 161.043 400.054 159.077C400.517 158.66 400.587 157.931 400.208 157.45Z" fill="url(#paint3_linear_3183_254450)" fill-opacity="0.35"/>
<g filter="url(#filter2_b_3183_254450)">
<mask id="path-99-outside-1_3183_254450" maskUnits="userSpaceOnUse" x="409.674" y="152.098" width="62.9103" height="60.789" fill="black">
<rect fill="white" x="409.674" y="152.098" width="62.9103" height="60.789"/>
<path fill-rule="evenodd" clip-rule="evenodd" d="M443.908 166.611C443.459 165.435 442.993 164.216 442.337 163.051C440.661 160.291 437.742 159.071 435.149 159.766C433.702 160.148 432.111 161.53 431.315 162.709L424.647 172.215L420.147 173.421C416.834 174.308 414.855 177.575 415.339 181.395C415.86 185.048 417.545 191.754 419.12 195.505C420.624 199.274 423.842 201.109 427.316 200.178L431.817 198.972L442.54 203.932C443.648 204.473 445.476 204.944 446.935 204.553C447.03 204.531 447.113 204.508 447.196 204.486C449.839 203.778 451.647 201.217 451.72 197.997C451.711 196.647 451.509 195.433 451.314 194.26L451.311 194.238L451.122 193.067C450.581 189.251 445.751 171.227 444.32 167.679L443.908 166.611ZM453.077 168.744C452.396 168.152 451.382 168.23 450.81 168.921C450.245 169.614 450.339 170.657 451.019 171.247C452.912 172.893 454.375 175.368 455.139 178.22C455.903 181.07 455.874 183.947 455.057 186.319C454.763 187.17 455.204 188.12 456.041 188.438C456.353 188.554 456.686 188.57 457.001 188.485C457.51 188.349 457.915 187.965 458.091 187.458C459.123 184.463 459.177 180.887 458.24 177.39C457.302 173.892 455.468 170.822 453.077 168.744ZM454.961 162.591C455.507 161.904 456.492 161.838 457.153 162.434C460.765 165.676 463.559 170.46 465.016 175.899C466.475 181.342 466.447 186.88 464.939 191.494C464.775 191.998 464.384 192.378 463.893 192.51C463.588 192.592 463.267 192.572 462.964 192.454C462.151 192.129 461.717 191.179 461.992 190.33C463.295 186.337 463.306 181.497 462.021 176.702C460.737 171.909 458.307 167.722 455.182 164.915C454.52 164.32 454.42 163.278 454.961 162.591Z"/>
</mask>
<path fill-rule="evenodd" clip-rule="evenodd" d="M443.908 166.611C443.459 165.435 442.993 164.216 442.337 163.051C440.661 160.291 437.742 159.071 435.149 159.766C433.702 160.148 432.111 161.53 431.315 162.709L424.647 172.215L420.147 173.421C416.834 174.308 414.855 177.575 415.339 181.395C415.86 185.048 417.545 191.754 419.12 195.505C420.624 199.274 423.842 201.109 427.316 200.178L431.817 198.972L442.54 203.932C443.648 204.473 445.476 204.944 446.935 204.553C447.03 204.531 447.113 204.508 447.196 204.486C449.839 203.778 451.647 201.217 451.72 197.997C451.711 196.647 451.509 195.433 451.314 194.26L451.311 194.238L451.122 193.067C450.581 189.251 445.751 171.227 444.32 167.679L443.908 166.611ZM453.077 168.744C452.396 168.152 451.382 168.23 450.81 168.921C450.245 169.614 450.339 170.657 451.019 171.247C452.912 172.893 454.375 175.368 455.139 178.22C455.903 181.07 455.874 183.947 455.057 186.319C454.763 187.17 455.204 188.12 456.041 188.438C456.353 188.554 456.686 188.57 457.001 188.485C457.51 188.349 457.915 187.965 458.091 187.458C459.123 184.463 459.177 180.887 458.24 177.39C457.302 173.892 455.468 170.822 453.077 168.744ZM454.961 162.591C455.507 161.904 456.492 161.838 457.153 162.434C460.765 165.676 463.559 170.46 465.016 175.899C466.475 181.342 466.447 186.88 464.939 191.494C464.775 191.998 464.384 192.378 463.893 192.51C463.588 192.592 463.267 192.572 462.964 192.454C462.151 192.129 461.717 191.179 461.992 190.33C463.295 186.337 463.306 181.497 462.021 176.702C460.737 171.909 458.307 167.722 455.182 164.915C454.52 164.32 454.42 163.278 454.961 162.591Z" fill="#3A37A6" fill-opacity="0.1"/>
<path d="M442.337 163.051L443.208 162.56C443.203 162.551 443.197 162.541 443.192 162.532L442.337 163.051ZM443.908 166.611L442.974 166.968L442.975 166.97L443.908 166.611ZM435.149 159.766L435.405 160.733L435.408 160.732L435.149 159.766ZM431.315 162.709L432.134 163.284C432.137 163.279 432.141 163.274 432.144 163.269L431.315 162.709ZM424.647 172.215L424.906 173.181C425.133 173.12 425.331 172.981 425.466 172.789L424.647 172.215ZM415.339 181.395L414.347 181.521C414.348 181.526 414.349 181.531 414.349 181.536L415.339 181.395ZM419.12 195.505L420.049 195.134C420.047 195.129 420.044 195.123 420.042 195.118L419.12 195.505ZM431.817 198.972L432.237 198.064C432.024 197.966 431.784 197.946 431.558 198.006L431.817 198.972ZM442.54 203.932L442.978 203.033C442.972 203.03 442.966 203.027 442.959 203.024L442.54 203.932ZM446.935 204.553L446.704 203.58C446.695 203.582 446.685 203.585 446.676 203.587L446.935 204.553ZM451.72 197.997L452.72 198.02C452.72 198.01 452.72 198 452.72 197.991L451.72 197.997ZM451.314 194.26L452.301 194.096L452.301 194.096L451.314 194.26ZM451.311 194.238L450.323 194.396L450.324 194.402L451.311 194.238ZM451.122 193.067L450.132 193.208C450.133 193.214 450.134 193.22 450.135 193.226L451.122 193.067ZM444.32 167.679L443.387 168.038C443.388 168.043 443.39 168.048 443.392 168.053L444.32 167.679ZM450.81 168.921L450.039 168.284L450.034 168.29L450.81 168.921ZM453.077 168.744L452.421 169.499L452.421 169.499L453.077 168.744ZM451.019 171.247L451.675 170.493L451.674 170.492L451.019 171.247ZM455.057 186.319L456.003 186.646L456.003 186.645L455.057 186.319ZM456.041 188.438L455.686 189.373L455.693 189.375L456.041 188.438ZM458.091 187.458L459.036 187.786L459.037 187.784L458.091 187.458ZM457.153 162.434L456.483 163.176L456.485 163.178L457.153 162.434ZM454.961 162.591L454.178 161.968L454.175 161.972L454.961 162.591ZM464.939 191.494L463.989 191.183L463.988 191.184L464.939 191.494ZM462.964 192.454L462.594 193.382L462.601 193.385L462.964 192.454ZM461.992 190.33L461.041 190.02L461.041 190.022L461.992 190.33ZM455.182 164.915L454.513 165.659L454.514 165.659L455.182 164.915ZM441.465 163.541C442.079 164.632 442.521 165.783 442.974 166.968L444.842 166.254C444.397 165.088 443.906 163.8 443.208 162.56L441.465 163.541ZM435.408 160.732C437.513 160.168 440.004 161.135 441.482 163.57L443.192 162.532C441.319 159.447 437.972 157.974 434.891 158.8L435.408 160.732ZM432.144 163.269C432.478 162.773 433.002 162.206 433.611 161.721C434.226 161.23 434.862 160.876 435.405 160.733L434.894 158.799C433.989 159.038 433.106 159.566 432.364 160.157C431.617 160.752 430.948 161.466 430.486 162.15L432.144 163.269ZM425.466 172.789L432.134 163.284L430.497 162.135L423.829 171.64L425.466 172.789ZM420.405 174.387L424.906 173.181L424.389 171.249L419.888 172.455L420.405 174.387ZM416.331 181.269C415.899 177.859 417.656 175.123 420.405 174.387L419.888 172.455C416.012 173.493 413.811 177.292 414.347 181.521L416.331 181.269ZM420.042 195.118C418.507 191.461 416.841 184.84 416.329 181.254L414.349 181.536C414.88 185.256 416.584 192.048 418.198 195.892L420.042 195.118ZM427.057 199.212C424.162 199.988 421.402 198.524 420.049 195.134L418.191 195.876C419.847 200.024 423.522 202.23 427.575 201.144L427.057 199.212ZM431.558 198.006L427.057 199.212L427.575 201.144L432.076 199.938L431.558 198.006ZM442.959 203.024L432.237 198.064L431.397 199.88L442.12 204.84L442.959 203.024ZM446.676 203.587C445.545 203.89 443.98 203.522 442.978 203.033L442.101 204.831C443.317 205.424 445.406 205.998 447.194 205.519L446.676 203.587ZM446.937 203.52C446.853 203.543 446.783 203.561 446.704 203.58L447.166 205.526C447.276 205.5 447.373 205.474 447.455 205.452L446.937 203.52ZM450.72 197.975C450.655 200.846 449.065 202.95 446.937 203.52L447.455 205.452C450.612 204.606 452.639 201.588 452.72 198.02L450.72 197.975ZM450.328 194.424C450.524 195.604 450.711 196.744 450.72 198.004L452.72 197.991C452.71 196.55 452.494 195.262 452.301 194.096L450.328 194.424ZM450.324 194.402L450.328 194.424L452.301 194.096L452.297 194.074L450.324 194.402ZM450.135 193.226L450.323 194.396L452.298 194.079L452.11 192.908L450.135 193.226ZM443.392 168.053C444.08 169.758 445.629 175.084 447.089 180.532C448.548 185.979 449.872 191.373 450.132 193.208L452.113 192.926C451.831 190.946 450.469 185.42 449.021 180.014C447.572 174.608 445.991 169.148 445.247 167.305L443.392 168.053ZM442.975 166.97L443.387 168.038L445.253 167.319L444.841 166.251L442.975 166.97ZM451.58 169.559C451.789 169.307 452.158 169.27 452.421 169.499L453.733 167.99C452.634 167.034 450.975 167.154 450.039 168.284L451.58 169.559ZM451.674 170.492C451.397 170.252 451.366 169.822 451.585 169.553L450.034 168.29C449.125 169.406 449.28 171.062 450.364 172.003L451.674 170.492ZM456.105 177.961C455.299 174.952 453.744 172.291 451.675 170.493L450.363 172.002C452.081 173.495 453.451 175.785 454.173 178.479L456.105 177.961ZM456.003 186.645C456.896 184.053 456.911 180.969 456.105 177.961L454.173 178.479C454.895 181.172 454.853 183.841 454.112 185.994L456.003 186.645ZM456.396 187.503C456.07 187.379 455.883 186.992 456.003 186.646L454.112 185.993C453.644 187.349 454.338 188.861 455.686 189.373L456.396 187.503ZM456.742 187.52C456.631 187.549 456.51 187.545 456.389 187.5L455.693 189.375C456.196 189.562 456.741 189.591 457.26 189.451L456.742 187.52ZM457.146 187.131C457.076 187.334 456.92 187.472 456.742 187.52L457.26 189.451C458.099 189.227 458.755 188.595 459.036 187.786L457.146 187.131ZM457.274 177.648C458.167 180.982 458.104 184.352 457.146 187.132L459.037 187.784C460.142 184.575 460.187 180.793 459.205 177.131L457.274 177.648ZM452.421 169.499C454.641 171.428 456.38 174.315 457.274 177.648L459.205 177.131C458.224 173.468 456.295 170.216 453.733 167.989L452.421 169.499ZM457.823 161.692C456.752 160.725 455.098 160.812 454.178 161.968L455.743 163.213C455.916 162.997 456.233 162.951 456.483 163.176L457.823 161.692ZM465.982 175.64C464.483 170.044 461.6 165.081 457.821 161.69L456.485 163.178C459.931 166.271 462.635 170.875 464.05 176.158L465.982 175.64ZM465.89 191.804C467.467 186.978 467.482 181.24 465.982 175.64L464.05 176.158C465.467 181.445 465.427 186.782 463.989 191.183L465.89 191.804ZM464.152 193.476C464.987 193.252 465.627 192.611 465.89 191.803L463.988 191.184C463.923 191.384 463.781 191.505 463.634 191.544L464.152 193.476ZM462.601 193.385C463.095 193.578 463.634 193.615 464.152 193.476L463.634 191.544C463.543 191.569 463.44 191.566 463.328 191.522L462.601 193.385ZM461.041 190.022C460.609 191.355 461.275 192.857 462.594 193.382L463.335 191.525C463.027 191.402 462.825 191.003 462.943 190.639L461.041 190.022ZM461.055 176.96C462.299 181.603 462.274 186.242 461.041 190.02L462.943 190.641C464.316 186.432 464.313 181.39 462.987 176.443L461.055 176.96ZM454.514 165.659C457.471 168.314 459.812 172.32 461.055 176.96L462.987 176.443C461.662 171.497 459.144 167.129 455.85 164.171L454.514 165.659ZM454.175 161.972C453.298 163.086 453.472 164.722 454.513 165.659L455.851 164.172C455.568 163.917 455.542 163.469 455.747 163.209L454.175 161.972Z" fill="url(#paint4_linear_3183_254450)" fill-opacity="0.3" mask="url(#path-99-outside-1_3183_254450)"/>
</g>
</g>
<g opacity="0.6">
<path fill-rule="evenodd" clip-rule="evenodd" d="M12.0307 639.881C12.2303 639.359 12.4375 638.817 12.7291 638.299C13.4737 637.072 14.7711 636.53 15.9238 636.839C16.5673 637.008 17.2744 637.622 17.628 638.147L20.5918 642.372L22.5924 642.908C24.0647 643.302 24.9445 644.755 24.7291 646.453C24.4977 648.076 23.7486 651.057 23.0487 652.724C22.38 654.4 20.9497 655.215 19.4055 654.801L17.405 654.265L12.6389 656.47C12.1461 656.71 11.3339 656.92 10.6852 656.746C10.6431 656.736 10.6061 656.726 10.569 656.716C9.39438 656.401 8.59065 655.263 8.5582 653.832C8.56232 653.232 8.652 652.692 8.73866 652.171L8.73866 652.171L8.74027 652.161L8.82384 651.641C9.06474 649.945 11.2114 641.933 11.8476 640.356L12.0307 639.881ZM7.95526 640.829C8.25787 640.566 8.70855 640.601 8.96297 640.908C9.21382 641.216 9.17233 641.68 8.86994 641.942C8.02827 642.673 7.37816 643.774 7.03849 645.041C6.69903 646.308 6.71173 647.587 7.07486 648.641C7.20557 649.02 7.00974 649.442 6.63771 649.583C6.499 649.634 6.35104 649.642 6.21087 649.604C5.98487 649.544 5.80448 649.373 5.72641 649.147C5.26781 647.816 5.24384 646.227 5.66045 644.672C6.07705 643.117 6.89251 641.753 7.95526 640.829ZM7.11767 638.094C6.87495 637.789 6.43691 637.759 6.14334 638.024C4.53761 639.465 3.29604 641.592 2.64819 644.01C1.99991 646.429 2.01212 648.891 2.68228 650.941C2.75517 651.165 2.92912 651.334 3.14743 651.393C3.28283 651.429 3.4254 651.42 3.56016 651.368C3.92163 651.224 4.11469 650.801 3.99239 650.424C3.41303 648.649 3.40827 646.498 3.97935 644.366C4.55021 642.236 5.63015 640.375 7.01938 639.127C7.3137 638.863 7.35789 638.399 7.11767 638.094Z" fill="url(#paint5_linear_3183_254450)" fill-opacity="0.35"/>
<g filter="url(#filter3_b_3183_254450)">
<mask id="path-102-outside-2_3183_254450" maskUnits="userSpaceOnUse" x="12.6737" y="634.182" width="41.1237" height="39.7095" fill="black">
<rect fill="white" x="12.6737" y="634.182" width="41.1237" height="39.7095"/>
<path fill-rule="evenodd" clip-rule="evenodd" d="M34.852 643.909C34.567 643.163 34.271 642.389 33.8547 641.65C32.7913 639.898 30.9384 639.123 29.2924 639.564C28.3733 639.807 27.3636 640.684 26.8586 641.433L22.6259 647.467L19.769 648.232C17.6664 648.796 16.41 650.869 16.7175 653.294C17.0479 655.613 18.1177 659.87 19.1173 662.251C20.0723 664.643 22.1149 665.808 24.3201 665.217L27.177 664.451L33.9835 667.6C34.6872 667.943 35.8472 668.242 36.7736 667.994C36.8336 667.98 36.8865 667.966 36.9395 667.952C38.6169 667.502 39.7647 665.877 39.8111 663.833C39.8052 662.976 39.6771 662.205 39.5534 661.46L39.551 661.446L39.4317 660.703C39.0877 658.281 36.022 646.84 35.1134 644.587L34.852 643.909ZM40.6722 645.264C40.2401 644.888 39.5965 644.937 39.2331 645.376C38.8749 645.816 38.9341 646.478 39.366 646.853C40.5679 647.897 41.4964 649.468 41.9814 651.279C42.4662 653.088 42.4481 654.914 41.9295 656.42C41.7428 656.96 42.0225 657.563 42.5538 657.765C42.7519 657.838 42.9632 657.849 43.1634 657.795C43.4861 657.708 43.7437 657.464 43.8552 657.143C44.5101 655.242 44.5444 652.972 43.9494 650.751C43.3545 648.531 42.1899 646.582 40.6722 645.264ZM41.8682 641.358C42.2148 640.922 42.8404 640.88 43.2596 641.258C45.5527 643.316 47.3258 646.353 48.251 649.805C49.1768 653.261 49.1594 656.776 48.2023 659.704C48.0982 660.024 47.8498 660.266 47.538 660.35C47.3447 660.401 47.1411 660.389 46.9486 660.314C46.4324 660.108 46.1567 659.505 46.3313 658.966C47.1587 656.431 47.1655 653.358 46.35 650.315C45.5347 647.272 43.9925 644.615 42.0085 642.833C41.5882 642.455 41.5251 641.794 41.8682 641.358Z"/>
</mask>
<path fill-rule="evenodd" clip-rule="evenodd" d="M34.852 643.909C34.567 643.163 34.271 642.389 33.8547 641.65C32.7913 639.898 30.9384 639.123 29.2924 639.564C28.3733 639.807 27.3636 640.684 26.8586 641.433L22.6259 647.467L19.769 648.232C17.6664 648.796 16.41 650.869 16.7175 653.294C17.0479 655.613 18.1177 659.87 19.1173 662.251C20.0723 664.643 22.1149 665.808 24.3201 665.217L27.177 664.451L33.9835 667.6C34.6872 667.943 35.8472 668.242 36.7736 667.994C36.8336 667.98 36.8865 667.966 36.9395 667.952C38.6169 667.502 39.7647 665.877 39.8111 663.833C39.8052 662.976 39.6771 662.205 39.5534 661.46L39.551 661.446L39.4317 660.703C39.0877 658.281 36.022 646.84 35.1134 644.587L34.852 643.909ZM40.6722 645.264C40.2401 644.888 39.5965 644.937 39.2331 645.376C38.8749 645.816 38.9341 646.478 39.366 646.853C40.5679 647.897 41.4964 649.468 41.9814 651.279C42.4662 653.088 42.4481 654.914 41.9295 656.42C41.7428 656.96 42.0225 657.563 42.5538 657.765C42.7519 657.838 42.9632 657.849 43.1634 657.795C43.4861 657.708 43.7437 657.464 43.8552 657.143C44.5101 655.242 44.5444 652.972 43.9494 650.751C43.3545 648.531 42.1899 646.582 40.6722 645.264ZM41.8682 641.358C42.2148 640.922 42.8404 640.88 43.2596 641.258C45.5527 643.316 47.3258 646.353 48.251 649.805C49.1768 653.261 49.1594 656.776 48.2023 659.704C48.0982 660.024 47.8498 660.266 47.538 660.35C47.3447 660.401 47.1411 660.389 46.9486 660.314C46.4324 660.108 46.1567 659.505 46.3313 658.966C47.1587 656.431 47.1655 653.358 46.35 650.315C45.5347 647.272 43.9925 644.615 42.0085 642.833C41.5882 642.455 41.5251 641.794 41.8682 641.358Z" fill="#3A37A6" fill-opacity="0.1"/>
<path d="M33.8547 641.65L34.7262 641.159C34.7208 641.15 34.7152 641.14 34.7095 641.131L33.8547 641.65ZM34.852 643.909L33.9179 644.266L33.919 644.269L34.852 643.909ZM29.2924 639.564L29.5476 640.531L29.5512 640.53L29.2924 639.564ZM26.8586 641.433L27.6772 642.007C27.6808 642.002 27.6842 641.997 27.6877 641.992L26.8586 641.433ZM22.6259 647.467L22.8848 648.433C23.1116 648.372 23.3098 648.233 23.4446 648.041L22.6259 647.467ZM16.7175 653.294L15.7254 653.42C15.726 653.425 15.7267 653.43 15.7275 653.435L16.7175 653.294ZM19.1173 662.251L20.0461 661.88C20.0439 661.874 20.0417 661.869 20.0394 661.863L19.1173 662.251ZM27.177 664.451L27.5969 663.544C27.3844 663.446 27.1443 663.425 26.9182 663.486L27.177 664.451ZM33.9835 667.6L34.422 666.701C34.4158 666.698 34.4096 666.695 34.4033 666.692L33.9835 667.6ZM36.7736 667.994L36.5423 667.021C36.5331 667.023 36.5239 667.026 36.5148 667.028L36.7736 667.994ZM39.8111 663.833L40.8108 663.855C40.811 663.846 40.8111 663.836 40.811 663.826L39.8111 663.833ZM39.5534 661.46L40.5398 661.296L40.5398 661.296L39.5534 661.46ZM39.551 661.446L38.5637 661.605L38.5646 661.61L39.551 661.446ZM39.4317 660.703L38.4416 660.844C38.4425 660.85 38.4434 660.856 38.4444 660.862L39.4317 660.703ZM35.1134 644.587L34.1804 644.947C34.1823 644.952 34.1841 644.956 34.186 644.961L35.1134 644.587ZM39.2331 645.376L38.4629 644.738L38.4577 644.745L39.2331 645.376ZM40.6722 645.264L40.016 646.018L40.0163 646.018L40.6722 645.264ZM39.366 646.853L40.022 646.098L40.0213 646.097L39.366 646.853ZM41.9295 656.42L42.8747 656.746L42.875 656.745L41.9295 656.42ZM42.5538 657.765L42.1991 658.7L42.2057 658.702L42.5538 657.765ZM43.8552 657.143L44.8001 657.47L44.8007 657.468L43.8552 657.143ZM43.2596 641.258L42.5896 642L42.5917 642.002L43.2596 641.258ZM41.8682 641.358L41.0856 640.735L41.0822 640.739L41.8682 641.358ZM48.2023 659.704L47.2518 659.394L47.2514 659.395L48.2023 659.704ZM46.9486 660.314L46.5783 661.243L46.5849 661.245L46.9486 660.314ZM46.3313 658.966L45.3807 658.656L45.3801 658.658L46.3313 658.966ZM42.0085 642.833L41.3398 643.577L41.3404 643.577L42.0085 642.833ZM32.9832 642.14C33.3576 642.805 33.6293 643.511 33.9179 644.266L35.7862 643.552C35.5048 642.816 35.1844 641.973 34.7262 641.159L32.9832 642.14ZM29.5512 640.53C30.709 640.22 32.1338 640.742 32.9998 642.168L34.7095 641.131C33.4488 639.054 31.1678 638.027 29.0336 638.599L29.5512 640.53ZM27.6877 641.992C27.8764 641.712 28.1823 641.379 28.5436 641.091C28.9109 640.798 29.269 640.605 29.5476 640.531L29.0371 638.598C28.3967 638.767 27.7904 639.133 27.2968 639.527C26.7973 639.925 26.3458 640.405 26.0295 640.874L27.6877 641.992ZM23.4446 648.041L27.6772 642.007L26.0399 640.859L21.8073 646.892L23.4446 648.041ZM20.0278 649.198L22.8848 648.433L22.3671 646.501L19.5102 647.266L20.0278 649.198ZM17.7095 653.168C17.4539 651.153 18.4884 649.611 20.0278 649.198L19.5102 647.266C16.8443 647.981 15.3661 650.586 15.7254 653.42L17.7095 653.168ZM20.0394 661.863C19.0791 659.577 18.0284 655.405 17.7075 653.153L15.7275 653.435C16.0675 655.821 17.1563 660.163 18.1953 662.638L20.0394 661.863ZM24.0612 664.251C22.435 664.687 20.8497 663.893 20.0461 661.88L18.1886 662.621C19.2949 665.393 21.7947 666.929 24.5789 666.183L24.0612 664.251ZM26.9182 663.486L24.0612 664.251L24.5789 666.183L27.4359 665.417L26.9182 663.486ZM34.4033 666.692L27.5969 663.544L26.7572 665.359L33.5637 668.508L34.4033 666.692ZM36.5148 667.028C35.9169 667.188 35.0186 666.992 34.422 666.701L33.545 668.499C34.3558 668.894 35.7774 669.296 37.0324 668.96L36.5148 667.028ZM36.6806 666.986C36.6266 667 36.5866 667.011 36.5423 667.021L37.0048 668.967C37.0805 668.949 37.1464 668.931 37.1983 668.917L36.6806 666.986ZM38.8113 663.81C38.7729 665.505 37.8434 666.674 36.6806 666.986L37.1983 668.917C39.3905 668.33 40.7566 666.248 40.8108 663.855L38.8113 663.81ZM38.5669 661.624C38.6918 662.376 38.8058 663.073 38.8111 663.84L40.811 663.826C40.8045 662.879 40.6624 662.034 40.5398 661.296L38.5669 661.624ZM38.5646 661.61L38.5669 661.624L40.5398 661.296L40.5375 661.282L38.5646 661.61ZM38.4444 660.862L38.5637 661.605L40.5384 661.288L40.4191 660.545L38.4444 660.862ZM34.186 644.961C34.6125 646.019 35.5897 649.375 36.5183 652.84C37.4469 656.306 38.28 659.706 38.4416 660.844L40.4218 660.562C40.2394 659.278 39.3677 655.747 38.4502 652.323C37.5329 648.899 36.523 645.408 36.0408 644.213L34.186 644.961ZM33.919 644.269L34.1804 644.947L36.0465 644.227L35.785 643.549L33.919 644.269ZM40.0033 646.014C40.0053 646.011 40.0064 646.011 40.0066 646.01C40.0067 646.01 40.0065 646.011 40.006 646.011C40.0049 646.011 40.0043 646.011 40.0044 646.011C40.0046 646.011 40.0051 646.011 40.0061 646.012C40.0065 646.012 40.0074 646.012 40.0088 646.013C40.0101 646.014 40.0126 646.015 40.016 646.018L41.3284 644.509C40.4782 643.77 39.1894 643.861 38.4629 644.738L40.0033 646.014ZM40.0213 646.097C40.0116 646.089 40.0014 646.073 39.9992 646.049C39.9971 646.025 40.0045 646.012 40.0085 646.008L38.4577 644.745C37.7546 645.608 37.8753 646.883 38.7106 647.608L40.0213 646.097ZM42.9474 651.02C42.42 649.052 41.3994 647.295 40.022 646.098L38.71 647.607C39.7365 648.499 40.5727 649.885 41.0155 651.538L42.9474 651.02ZM42.875 656.745C43.4693 655.02 43.4744 652.987 42.9474 651.02L41.0155 651.538C41.4581 653.189 41.4269 654.808 40.984 656.094L42.875 656.745ZM42.9084 656.83C42.9021 656.827 42.8895 656.82 42.8795 656.798C42.8694 656.777 42.8705 656.758 42.8747 656.746L40.9843 656.093C40.6231 657.139 41.1566 658.304 42.1991 658.7L42.9084 656.83ZM42.9045 656.829C42.9054 656.829 42.9066 656.829 42.9074 656.829C42.9081 656.829 42.9063 656.829 42.9019 656.827L42.2057 658.702C42.5946 658.846 43.018 658.869 43.4222 658.761L42.9045 656.829ZM42.9104 656.815C42.9072 656.824 42.9033 656.829 42.9021 656.83C42.901 656.831 42.9019 656.83 42.9045 656.829L43.4222 658.761C44.0756 658.586 44.5834 658.095 44.8001 657.47L42.9104 656.815ZM42.9835 651.01C43.5344 653.066 43.4909 655.13 42.9097 656.817L44.8007 657.468C45.5294 655.353 45.5544 652.878 44.9153 650.493L42.9835 651.01ZM40.0163 646.018C41.363 647.189 42.4326 648.954 42.9835 651.01L44.9153 650.493C44.2763 648.108 43.0168 645.976 41.3281 644.509L40.0163 646.018ZM43.9296 640.516C43.0999 639.767 41.8059 639.829 41.0856 640.735L42.6508 641.98C42.6508 641.98 42.6494 641.982 42.6463 641.984C42.6432 641.987 42.6393 641.99 42.6346 641.992C42.625 641.997 42.6152 641.999 42.6067 642C42.5983 642.001 42.5918 641.999 42.5879 641.998C42.5834 641.996 42.5842 641.996 42.5896 642L43.9296 640.516ZM49.2169 649.547C48.2498 645.937 46.3869 642.721 43.9275 640.514L42.5917 642.002C44.7185 643.911 46.4018 646.768 47.2851 650.064L49.2169 649.547ZM49.1528 660.015C50.1793 656.874 50.1847 653.158 49.2169 649.547L47.2851 650.064C48.1689 653.363 48.1394 656.678 47.2518 659.394L49.1528 660.015ZM47.7968 661.315C48.453 661.14 48.9501 660.638 49.1532 660.014L47.2514 659.395C47.2489 659.403 47.2471 659.402 47.2512 659.398C47.2555 659.394 47.265 659.387 47.2792 659.384L47.7968 661.315ZM46.5849 661.245C46.9684 661.395 47.3899 661.425 47.7968 661.315L47.2792 659.384C47.2874 659.381 47.2962 659.381 47.3039 659.381C47.3114 659.382 47.3144 659.383 47.3123 659.382L46.5849 661.245ZM45.3801 658.658C45.0485 659.68 45.5564 660.835 46.5783 661.243L47.3189 659.385C47.3185 659.385 47.3155 659.383 47.3102 659.378C47.3043 659.373 47.2967 659.363 47.2902 659.349C47.2761 659.318 47.2773 659.291 47.2826 659.274L45.3801 658.658ZM45.3841 650.574C46.1587 653.465 46.1378 656.336 45.3807 658.656L47.282 659.276C48.1797 656.526 48.1724 653.252 47.3159 650.056L45.3841 650.574ZM41.3404 643.577C43.1557 645.207 44.6097 647.684 45.3841 650.574L47.3159 650.056C46.4597 646.861 44.8292 644.022 42.6767 642.089L41.3404 643.577ZM41.0822 640.739C40.4032 641.602 40.5403 642.857 41.3398 643.577L42.6773 642.09C42.6658 642.079 42.6509 642.057 42.6476 642.022C42.6461 642.006 42.6478 641.994 42.65 641.986C42.6511 641.982 42.6522 641.979 42.6528 641.978C42.6535 641.977 42.6539 641.976 42.6541 641.976L41.0822 640.739Z" fill="url(#paint6_linear_3183_254450)" fill-opacity="0.3" mask="url(#path-102-outside-2_3183_254450)"/>
</g>
</g>
<g opacity="0.5">
<path fill-rule="evenodd" clip-rule="evenodd" d="M179.56 339.63L179.56 337.514C179.56 331.158 174.428 326 168.135 326L148.868 326C142.865 326 138 330.914 138 336.977L138 361.265L138 363.38C138 369.736 143.131 374.895 149.425 374.895H168.692C174.695 374.895 179.56 369.981 179.56 363.918V339.63Z" fill="url(#paint7_linear_3183_254450)" fill-opacity="0.5"/>
<g opacity="0.5" filter="url(#filter4_f_3183_254450)">
<rect x="145.859" y="361.154" width="25.383" height="21.7569" rx="5" transform="rotate(-90 145.859 361.154)" fill="#8237FF" fill-opacity="0.5"/>
</g>
<g filter="url(#filter5_b_3183_254450)">
<path d="M158.002 337.106H175.975L188.646 350.735V375.023C188.646 381.086 183.78 386 177.778 386H158.511C152.217 386 147.086 380.842 147.086 374.486V348.132C147.086 342.069 151.975 337.106 158.002 337.106Z" fill="#3A37A6" fill-opacity="0.1"/>
<path d="M176.342 336.766C176.247 336.664 176.114 336.606 175.975 336.606H158.002C151.694 336.606 146.586 341.798 146.586 348.132V374.486C146.586 381.115 151.938 386.5 158.511 386.5H177.778C184.061 386.5 189.146 381.358 189.146 375.023V350.735C189.146 350.609 189.098 350.487 189.012 350.395L176.342 336.766Z" stroke="url(#paint8_linear_3183_254450)" stroke-linecap="round" stroke-linejoin="round"/>
</g>
<mask id="path-108-inside-3_3183_254450" fill="white">
<path fill-rule="evenodd" clip-rule="evenodd" d="M167.684 356.286H159.503C158.51 356.286 157.688 357.118 157.688 358.12C157.688 359.122 158.51 359.929 159.503 359.929H167.684C168.676 359.929 169.499 359.122 169.499 358.12C169.499 357.118 168.676 356.286 167.684 356.286ZM159.503 372.152H172.67C173.663 372.152 174.486 371.32 174.486 370.318C174.486 369.316 173.663 368.509 172.67 368.509H159.503C158.511 368.509 157.688 369.316 157.688 370.318C157.688 371.32 158.511 372.152 159.503 372.152Z"/>
</mask>
<path fill-rule="evenodd" clip-rule="evenodd" d="M167.684 356.286H159.503C158.51 356.286 157.688 357.118 157.688 358.12C157.688 359.122 158.51 359.929 159.503 359.929H167.684C168.676 359.929 169.499 359.122 169.499 358.12C169.499 357.118 168.676 356.286 167.684 356.286ZM159.503 372.152H172.67C173.663 372.152 174.486 371.32 174.486 370.318C174.486 369.316 173.663 368.509 172.67 368.509H159.503C158.511 368.509 157.688 369.316 157.688 370.318C157.688 371.32 158.511 372.152 159.503 372.152Z" fill="url(#paint9_linear_3183_254450)"/>
<path d="M159.503 356.686H167.684V355.886H159.503V356.686ZM158.088 358.12C158.088 357.335 158.735 356.686 159.503 356.686V355.886C158.286 355.886 157.287 356.9 157.287 358.12H158.088ZM159.503 359.529C158.728 359.529 158.088 358.898 158.088 358.12H157.287C157.287 359.346 158.293 360.329 159.503 360.329V359.529ZM167.684 359.529H159.503V360.329H167.684V359.529ZM169.099 358.12C169.099 358.898 168.459 359.529 167.684 359.529V360.329C168.894 360.329 169.899 359.346 169.899 358.12H169.099ZM167.684 356.686C168.452 356.686 169.099 357.335 169.099 358.12H169.899C169.899 356.9 168.901 355.886 167.684 355.886V356.686ZM172.67 371.752H159.503V372.552H172.67V371.752ZM174.086 370.318C174.086 371.103 173.438 371.752 172.67 371.752V372.552C173.887 372.552 174.886 371.538 174.886 370.318H174.086ZM172.67 368.909C173.445 368.909 174.086 369.54 174.086 370.318H174.886C174.886 369.092 173.88 368.109 172.67 368.109V368.909ZM159.503 368.909H172.67V368.109H159.503V368.909ZM158.088 370.318C158.088 369.54 158.728 368.909 159.503 368.909V368.109C158.293 368.109 157.288 369.092 157.288 370.318H158.088ZM159.503 371.752C158.735 371.752 158.088 371.103 158.088 370.318H157.288C157.288 371.538 158.286 372.552 159.503 372.552V371.752Z" fill="url(#paint10_linear_3183_254450)" mask="url(#path-108-inside-3_3183_254450)"/>
<g filter="url(#filter6_bd_3183_254450)">
<mask id="path-110-inside-4_3183_254450" fill="white">
<path d="M178.218 352.687C179.905 352.704 182.251 352.712 184.24 352.704C185.259 352.702 185.777 351.472 185.07 350.731C182.514 348.047 177.942 343.243 175.326 340.496C174.602 339.735 173.336 340.258 173.336 341.312V347.756C173.336 350.46 175.541 352.687 178.218 352.687Z"/>
</mask>
<path d="M178.218 352.687C179.905 352.704 182.251 352.712 184.24 352.704C185.259 352.702 185.777 351.472 185.07 350.731C182.514 348.047 177.942 343.243 175.326 340.496C174.602 339.735 173.336 340.258 173.336 341.312V347.756C173.336 350.46 175.541 352.687 178.218 352.687Z" fill="url(#paint11_linear_3183_254450)"/>
<path d="M184.24 352.704L184.239 352.304L184.239 352.304L184.24 352.704ZM185.07 350.731L184.781 351.007L184.781 351.008L185.07 350.731ZM175.326 340.496L175.036 340.771L175.036 340.771L175.326 340.496ZM178.214 353.087C179.903 353.104 182.25 353.112 184.242 353.104L184.239 352.304C182.251 352.312 179.907 352.304 178.222 352.287L178.214 353.087ZM184.241 353.104C185.618 353.101 186.305 351.446 185.36 350.455L184.781 351.008C185.25 351.499 184.9 352.303 184.239 352.304L184.241 353.104ZM185.36 350.456C182.801 347.768 178.235 342.971 175.615 340.22L175.036 340.771C177.649 343.516 182.228 348.326 184.781 351.007L185.36 350.456ZM175.615 340.22C174.633 339.188 172.936 339.912 172.936 341.312H173.736C173.736 340.605 174.571 340.283 175.036 340.771L175.615 340.22ZM172.936 341.312V347.756H173.736V341.312H172.936ZM172.936 347.756C172.936 350.677 175.316 353.087 178.218 353.087V352.287C175.766 352.287 173.736 350.243 173.736 347.756H172.936Z" fill="url(#paint12_linear_3183_254450)" mask="url(#path-110-inside-4_3183_254450)"/>
</g>
</g>
<g opacity="0.5">
<path fill-rule="evenodd" clip-rule="evenodd" d="M199.225 23.2692L199.225 22.1411C199.225 18.7511 201.962 16 205.319 16L215.594 16C218.796 16 221.391 18.6207 221.391 21.8542L221.391 34.8079L221.391 35.9361C221.391 39.3261 218.654 42.0771 215.297 42.0771H205.022C201.82 42.0771 199.225 39.4564 199.225 36.2229V23.2692Z" fill="url(#paint13_linear_3183_254450)" fill-opacity="0.5"/>
<g opacity="0.5" filter="url(#filter7_f_3183_254450)">
<rect width="13.5376" height="11.6037" rx="5" transform="matrix(4.37114e-08 -1 -1 -4.37114e-08 217.203 34.749)" fill="#8237FF" fill-opacity="0.5"/>
</g>
<g filter="url(#filter8_b_3183_254450)">
<path d="M210.725 21.9233L201.139 21.9233L194.382 29.1921V42.1458C194.382 45.3793 196.976 48 200.178 48H210.454C213.81 48 216.547 45.2489 216.547 41.8589V27.8036C216.547 24.5701 213.939 21.9233 210.725 21.9233Z" fill="#3A37A6" fill-opacity="0.1"/>
<path d="M200.773 21.5829C200.868 21.4811 201 21.4233 201.139 21.4233L210.725 21.4233C214.221 21.4233 217.047 24.2994 217.047 27.8036V41.8589C217.047 45.5217 214.09 48.5 210.454 48.5H200.178C196.696 48.5 193.882 45.6507 193.882 42.1458V29.1921C193.882 29.0658 193.93 28.9442 194.016 28.8517L200.773 21.5829Z" stroke="url(#paint14_linear_3183_254450)" stroke-linecap="round" stroke-linejoin="round"/>
</g>
<mask id="path-116-inside-5_3183_254450" fill="white">
<path fill-rule="evenodd" clip-rule="evenodd" d="M205.559 32.1527H209.922C210.452 32.1527 210.891 32.596 210.891 33.1306C210.891 33.6652 210.452 34.0954 209.922 34.0954H205.559C205.03 34.0954 204.591 33.6652 204.591 33.1306C204.591 32.596 205.03 32.1527 205.559 32.1527ZM209.922 40.6142H202.9C202.37 40.6142 201.932 40.1709 201.932 39.6364C201.932 39.1018 202.37 38.6715 202.9 38.6715H209.922C210.452 38.6715 210.891 39.1018 210.891 39.6364C210.891 40.1709 210.452 40.6142 209.922 40.6142Z"/>
</mask>
<path fill-rule="evenodd" clip-rule="evenodd" d="M205.559 32.1527H209.922C210.452 32.1527 210.891 32.596 210.891 33.1306C210.891 33.6652 210.452 34.0954 209.922 34.0954H205.559C205.03 34.0954 204.591 33.6652 204.591 33.1306C204.591 32.596 205.03 32.1527 205.559 32.1527ZM209.922 40.6142H202.9C202.37 40.6142 201.932 40.1709 201.932 39.6364C201.932 39.1018 202.37 38.6715 202.9 38.6715H209.922C210.452 38.6715 210.891 39.1018 210.891 39.6364C210.891 40.1709 210.452 40.6142 209.922 40.6142Z" fill="url(#paint15_linear_3183_254450)"/>
<path d="M209.922 32.5527H205.559V31.7527H209.922V32.5527ZM210.491 33.1306C210.491 32.8132 210.227 32.5527 209.922 32.5527V31.7527C210.676 31.7527 211.291 32.3789 211.291 33.1306H210.491ZM209.922 33.6954C210.234 33.6954 210.491 33.441 210.491 33.1306H211.291C211.291 33.8893 210.669 34.4954 209.922 34.4954V33.6954ZM205.559 33.6954H209.922V34.4954H205.559V33.6954ZM204.991 33.1306C204.991 33.441 205.248 33.6954 205.559 33.6954V34.4954C204.812 34.4954 204.191 33.8893 204.191 33.1306H204.991ZM205.559 32.5527C205.254 32.5527 204.991 32.8132 204.991 33.1306H204.191C204.191 32.3789 204.805 31.7527 205.559 31.7527V32.5527ZM202.9 40.2142H209.922V41.0142H202.9V40.2142ZM202.332 39.6364C202.332 39.9538 202.595 40.2142 202.9 40.2142V41.0142C202.146 41.0142 201.532 40.3881 201.532 39.6364H202.332ZM202.9 39.0715C202.588 39.0715 202.332 39.3259 202.332 39.6364H201.532C201.532 38.8776 202.153 38.2715 202.9 38.2715V39.0715ZM209.922 39.0715H202.9V38.2715H209.922V39.0715ZM210.491 39.6364C210.491 39.3259 210.234 39.0715 209.922 39.0715V38.2715C210.669 38.2715 211.291 38.8776 211.291 39.6364H210.491ZM209.922 40.2142C210.227 40.2142 210.491 39.9538 210.491 39.6364H211.291C211.291 40.3881 210.676 41.0142 209.922 41.0142V40.2142Z" fill="url(#paint16_linear_3183_254450)" mask="url(#path-116-inside-5_3183_254450)"/>
<g filter="url(#filter9_bd_3183_254450)">
<mask id="path-118-inside-6_3183_254450" fill="white">
<path d="M199.943 30.2332C199.043 30.2423 197.792 30.2462 196.731 30.2423C196.188 30.241 195.912 29.5852 196.288 29.1901C197.652 27.7585 200.09 25.1965 201.486 23.731C201.872 23.3255 202.547 23.6045 202.547 24.1665V27.6034C202.547 29.0454 201.371 30.2332 199.943 30.2332Z"/>
</mask>
<path d="M199.943 30.2332C199.043 30.2423 197.792 30.2462 196.731 30.2423C196.188 30.241 195.912 29.5852 196.288 29.1901C197.652 27.7585 200.09 25.1965 201.486 23.731C201.872 23.3255 202.547 23.6045 202.547 24.1665V27.6034C202.547 29.0454 201.371 30.2332 199.943 30.2332Z" fill="url(#paint17_linear_3183_254450)"/>
<path d="M196.731 30.2423L196.732 29.8423L196.733 29.8423L196.731 30.2423ZM196.288 29.1901L196.578 29.466L196.578 29.4663L196.288 29.1901ZM201.486 23.731L201.775 24.0068L201.775 24.0068L201.486 23.731ZM199.947 30.6332C199.045 30.6423 197.793 30.6462 196.73 30.6423L196.733 29.8423C197.792 29.8462 199.041 29.8423 199.939 29.8332L199.947 30.6332ZM196.73 30.6423C195.829 30.6402 195.384 29.5586 195.999 28.914L196.578 29.4663C196.439 29.6118 196.547 29.8419 196.732 29.8423L196.73 30.6423ZM195.999 28.9143C197.365 27.4797 199.798 24.9238 201.196 23.4551L201.775 24.0068C200.383 25.4692 197.938 28.0374 196.578 29.466L195.999 28.9143ZM201.196 23.4552C201.841 22.7777 202.947 23.2578 202.947 24.1665H202.147C202.147 23.9512 201.903 23.8732 201.775 24.0068L201.196 23.4552ZM202.947 24.1665V27.6034H202.147V24.1665H202.947ZM202.947 27.6034C202.947 29.2626 201.595 30.6332 199.943 30.6332V29.8332C201.146 29.8332 202.147 28.8283 202.147 27.6034H202.947Z" fill="url(#paint18_linear_3183_254450)" mask="url(#path-118-inside-6_3183_254450)"/>
</g>
</g>
<defs>
<filter id="filter0_f_3183_254450" x="809.938" y="178.282" width="29.1797" height="26.8914" filterUnits="userSpaceOnUse" color-interpolation-filters="sRGB">
<feFlood flood-opacity="0" result="BackgroundImageFix"/>
<feBlend mode="normal" in="SourceGraphic" in2="BackgroundImageFix" result="shape"/>
<feGaussianBlur stdDeviation="4.5" result="effect1_foregroundBlur_3183_254450"/>
</filter>
<filter id="filter1_b_3183_254450" x="784.789" y="156.693" width="68.0391" height="69.3072" filterUnits="userSpaceOnUse" color-interpolation-filters="sRGB">
<feFlood flood-opacity="0" result="BackgroundImageFix"/>
<feGaussianBlur in="BackgroundImageFix" stdDeviation="12"/>
<feComposite in2="SourceAlpha" operator="in" result="effect1_backgroundBlur_3183_254450"/>
<feBlend mode="normal" in="SourceGraphic" in2="effect1_backgroundBlur_3183_254450" result="shape"/>
</filter>
<filter id="filter2_b_3183_254450" x="390.266" y="134.573" width="100.828" height="95.1238" filterUnits="userSpaceOnUse" color-interpolation-filters="sRGB">
<feFlood flood-opacity="0" result="BackgroundImageFix"/>
<feGaussianBlur in="BackgroundImageFix" stdDeviation="12"/>
<feComposite in2="SourceAlpha" operator="in" result="effect1_backgroundBlur_3183_254450"/>
<feBlend mode="normal" in="SourceGraphic" in2="effect1_backgroundBlur_3183_254450" result="shape"/>
</filter>
<filter id="filter3_b_3183_254450" x="-8.32812" y="614.442" width="82.2578" height="78.6439" filterUnits="userSpaceOnUse" color-interpolation-filters="sRGB">
<feFlood flood-opacity="0" result="BackgroundImageFix"/>
<feGaussianBlur in="BackgroundImageFix" stdDeviation="12"/>
<feComposite in2="SourceAlpha" operator="in" result="effect1_backgroundBlur_3183_254450"/>
<feBlend mode="normal" in="SourceGraphic" in2="effect1_backgroundBlur_3183_254450" result="shape"/>
</filter>
<filter id="filter4_f_3183_254450" x="124.859" y="314.771" width="63.7578" height="67.3831" filterUnits="userSpaceOnUse" color-interpolation-filters="sRGB">
<feFlood flood-opacity="0" result="BackgroundImageFix"/>
<feBlend mode="normal" in="SourceGraphic" in2="BackgroundImageFix" result="shape"/>
<feGaussianBlur stdDeviation="10.5" result="effect1_foregroundBlur_3183_254450"/>
</filter>
<filter id="filter5_b_3183_254450" x="122.086" y="312.106" width="91.5625" height="98.8937" filterUnits="userSpaceOnUse" color-interpolation-filters="sRGB">
<feFlood flood-opacity="0" result="BackgroundImageFix"/>
<feGaussianBlur in="BackgroundImageFix" stdDeviation="12"/>
<feComposite in2="SourceAlpha" operator="in" result="effect1_backgroundBlur_3183_254450"/>
<feBlend mode="normal" in="SourceGraphic" in2="effect1_backgroundBlur_3183_254450" result="shape"/>
</filter>
<filter id="filter6_bd_3183_254450" x="158.336" y="325.135" width="42.0625" height="42.5721" filterUnits="userSpaceOnUse" color-interpolation-filters="sRGB">
<feFlood flood-opacity="0" result="BackgroundImageFix"/>
<feGaussianBlur in="BackgroundImageFix" stdDeviation="7.5"/>
<feComposite in2="SourceAlpha" operator="in" result="effect1_backgroundBlur_3183_254450"/>
<feColorMatrix in="SourceAlpha" type="matrix" values="0 0 0 0 0 0 0 0 0 0 0 0 0 0 0 0 0 0 127 0" result="hardAlpha"/>
<feOffset dx="5" dy="5"/>
<feGaussianBlur stdDeviation="5"/>
<feColorMatrix type="matrix" values="0 0 0 0 0.577356 0 0 0 0 0.359375 0 0 0 0 0.9375 0 0 0 0.25 0"/>
<feBlend mode="normal" in2="effect1_backgroundBlur_3183_254450" result="effect2_dropShadow_3183_254450"/>
<feBlend mode="normal" in="SourceGraphic" in2="effect2_dropShadow_3183_254450" result="shape"/>
</filter>
<filter id="filter7_f_3183_254450" x="184.602" y="0.211334" width="53.6016" height="55.5376" filterUnits="userSpaceOnUse" color-interpolation-filters="sRGB">
<feFlood flood-opacity="0" result="BackgroundImageFix"/>
<feBlend mode="normal" in="SourceGraphic" in2="BackgroundImageFix" result="shape"/>
<feGaussianBlur stdDeviation="10.5" result="effect1_foregroundBlur_3183_254450"/>
</filter>
<filter id="filter8_b_3183_254450" x="169.383" y="-3.07666" width="72.1641" height="76.0767" filterUnits="userSpaceOnUse" color-interpolation-filters="sRGB">
<feFlood flood-opacity="0" result="BackgroundImageFix"/>
<feGaussianBlur in="BackgroundImageFix" stdDeviation="12"/>
<feComposite in2="SourceAlpha" operator="in" result="effect1_backgroundBlur_3183_254450"/>
<feBlend mode="normal" in="SourceGraphic" in2="effect1_backgroundBlur_3183_254450" result="shape"/>
</filter>
<filter id="filter9_bd_3183_254450" x="181.117" y="8.53874" width="36.4297" height="36.7051" filterUnits="userSpaceOnUse" color-interpolation-filters="sRGB">
<feFlood flood-opacity="0" result="BackgroundImageFix"/>
<feGaussianBlur in="BackgroundImageFix" stdDeviation="7.5"/>
<feComposite in2="SourceAlpha" operator="in" result="effect1_backgroundBlur_3183_254450"/>
<feColorMatrix in="SourceAlpha" type="matrix" values="0 0 0 0 0 0 0 0 0 0 0 0 0 0 0 0 0 0 127 0" result="hardAlpha"/>
<feOffset dx="5" dy="5"/>
<feGaussianBlur stdDeviation="5"/>
<feColorMatrix type="matrix" values="0 0 0 0 0.577356 0 0 0 0 0.359375 0 0 0 0 0.9375 0 0 0 0.25 0"/>
<feBlend mode="normal" in2="effect1_backgroundBlur_3183_254450" result="effect2_dropShadow_3183_254450"/>
<feBlend mode="normal" in="SourceGraphic" in2="effect2_dropShadow_3183_254450" result="shape"/>
</filter>
<linearGradient id="paint0_linear_3183_254450" x1="419" y1="139" x2="419" y2="609.5" gradientUnits="userSpaceOnUse">
<stop stop-color="white"/>
<stop offset="1" stop-color="white" stop-opacity="0"/>
</linearGradient>
<linearGradient id="paint1_linear_3183_254450" x1="827.052" y1="184.488" x2="827.052" y2="198.46" gradientUnits="userSpaceOnUse">
<stop stop-color="#BFC6EF"/>
<stop offset="1" stop-color="#716ED9"/>
</linearGradient>
<linearGradient id="paint2_linear_3183_254450" x1="809.736" y1="181.562" x2="827.662" y2="201.559" gradientUnits="userSpaceOnUse">
<stop stop-color="white" stop-opacity="0.73"/>
<stop offset="1" stop-color="white" stop-opacity="0"/>
</linearGradient>
<linearGradient id="paint3_linear_3183_254450" x1="406.99" y1="172.607" x2="431.699" y2="195.322" gradientUnits="userSpaceOnUse">
<stop stop-color="#3A37A6"/>
<stop offset="1" stop-color="#AEBFF2"/>
</linearGradient>
<linearGradient id="paint4_linear_3183_254450" x1="419.949" y1="169.425" x2="457.987" y2="199.235" gradientUnits="userSpaceOnUse">
<stop stop-color="white"/>
<stop offset="1" stop-color="#E2E1FF" stop-opacity="0"/>
</linearGradient>
<linearGradient id="paint5_linear_3183_254450" x1="11.4224" y1="647.716" x2="27.107" y2="662.135" gradientUnits="userSpaceOnUse">
<stop stop-color="#3A37A6"/>
<stop offset="1" stop-color="#AEBFF2"/>
</linearGradient>
<linearGradient id="paint6_linear_3183_254450" x1="19.6436" y1="645.696" x2="43.789" y2="664.619" gradientUnits="userSpaceOnUse">
<stop stop-color="white"/>
<stop offset="1" stop-color="#E2E1FF" stop-opacity="0"/>
</linearGradient>
<linearGradient id="paint7_linear_3183_254450" x1="167.83" y1="326" x2="167.83" y2="374.895" gradientUnits="userSpaceOnUse">
<stop stop-color="#3A37A6"/>
<stop offset="1" stop-color="#A2AEF4"/>
</linearGradient>
<linearGradient id="paint8_linear_3183_254450" x1="153.702" y1="342.802" x2="185.565" y2="376.346" gradientUnits="userSpaceOnUse">
<stop stop-color="white" stop-opacity="0.25"/>
<stop offset="1" stop-color="white" stop-opacity="0"/>
</linearGradient>
<linearGradient id="paint9_linear_3183_254450" x1="173.295" y1="359.151" x2="154.586" y2="359.797" gradientUnits="userSpaceOnUse">
<stop stop-color="white"/>
<stop offset="1" stop-color="white" stop-opacity="0.2"/>
</linearGradient>
<linearGradient id="paint10_linear_3183_254450" x1="160.361" y1="358.135" x2="170.345" y2="371.227" gradientUnits="userSpaceOnUse">
<stop stop-color="white" stop-opacity="0.25"/>
<stop offset="1" stop-color="white" stop-opacity="0"/>
</linearGradient>
<linearGradient id="paint11_linear_3183_254450" x1="184.541" y1="342.405" x2="171.106" y2="342.826" gradientUnits="userSpaceOnUse">
<stop stop-color="white"/>
<stop offset="1" stop-color="white" stop-opacity="0.2"/>
</linearGradient>
<linearGradient id="paint12_linear_3183_254450" x1="175.256" y1="341.6" x2="183.339" y2="351.204" gradientUnits="userSpaceOnUse">
<stop stop-color="white" stop-opacity="0.25"/>
<stop offset="1" stop-color="white" stop-opacity="0"/>
</linearGradient>
<linearGradient id="paint13_linear_3183_254450" x1="205.481" y1="16" x2="205.481" y2="42.0772" gradientUnits="userSpaceOnUse">
<stop stop-color="#3A37A6"/>
<stop offset="1" stop-color="#A2AEF4"/>
</linearGradient>
<linearGradient id="paint14_linear_3183_254450" x1="213.019" y1="24.9613" x2="196.025" y2="42.8514" gradientUnits="userSpaceOnUse">
<stop stop-color="white" stop-opacity="0.25"/>
<stop offset="1" stop-color="white" stop-opacity="0"/>
</linearGradient>
<linearGradient id="paint15_linear_3183_254450" x1="202.567" y1="33.6807" x2="212.545" y2="34.0252" gradientUnits="userSpaceOnUse">
<stop stop-color="white"/>
<stop offset="1" stop-color="white" stop-opacity="0.2"/>
</linearGradient>
<linearGradient id="paint16_linear_3183_254450" x1="209.464" y1="33.1385" x2="204.14" y2="40.1211" gradientUnits="userSpaceOnUse">
<stop stop-color="white" stop-opacity="0.25"/>
<stop offset="1" stop-color="white" stop-opacity="0"/>
</linearGradient>
<linearGradient id="paint17_linear_3183_254450" x1="196.571" y1="24.7495" x2="203.736" y2="24.9737" gradientUnits="userSpaceOnUse">
<stop stop-color="white"/>
<stop offset="1" stop-color="white" stop-opacity="0.2"/>
</linearGradient>
<linearGradient id="paint18_linear_3183_254450" x1="201.523" y1="24.3199" x2="197.212" y2="29.4421" gradientUnits="userSpaceOnUse">
<stop stop-color="white" stop-opacity="0.25"/>
<stop offset="1" stop-color="white" stop-opacity="0"/>
</linearGradient>
<clipPath id="clip0_3183_254450">
<rect width="600" height="335.672" fill="white" transform="translate(103 287)"/>
</clipPath>
</defs>
</svg>
